  0
SECTION
  2
HEADER
  9
$ACADVER
  1
AC1027
  9
$ACADMAINTVER
 70
105
  9
$DWGCODEPAGE
  3
ANSI_1252
  9
$LASTSAVEDBY
  1
ezdxf
  9
$REQUIREDVERSIONS
160
0
  9
$INSBASE
 10
0.0
 20
0.0
 30
0.0
  9
$EXTMIN
 10
1e+20
 20
1e+20
 30
1e+20
  9
$EXTMAX
 10
-1e+20
 20
-1e+20
 30
-1e+20
  9
$LIMMIN
 10
0.0
 20
0.0
  9
$LIMMAX
 10
420.0
 20
297.0
  9
$ORTHOMODE
 70
0
  9
$REGENMODE
 70
1
  9
$FILLMODE
 70
1
  9
$QTEXTMODE
 70
0
  9
$MIRRTEXT
 70
1
  9
$LTSCALE
 40
1.0
  9
$ATTMODE
 70
1
  9
$TEXTSIZE
 40
2.5
  9
$TRACEWID
 40
1.0
  9
$TEXTSTYLE
  7
Standard
  9
$CLAYER
  8
0
  9
$CELTYPE
  6
ByLayer
  9
$CECOLOR
 62
256
  9
$CELTSCALE
 40
1.0
  9
$DISPSILH
 70
0
  9
$DIMSCALE
 40
1.0
  9
$DIMASZ
 40
2.5
  9
$DIMEXO
 40
0.625
  9
$DIMDLI
 40
3.75
  9
$DIMRND
 40
0.0
  9
$DIMDLE
 40
0.0
  9
$DIMEXE
 40
1.25
  9
$DIMTP
 40
0.0
  9
$DIMTM
 40
0.0
  9
$DIMTXT
 40
2.5
  9
$DIMCEN
 40
2.5
  9
$DIMTSZ
 40
0.0
  9
$DIMTOL
 70
0
  9
$DIMLIM
 70
0
  9
$DIMTIH
 70
0
  9
$DIMTOH
 70
0
  9
$DIMSE1
 70
0
  9
$DIMSE2
 70
0
  9
$DIMTAD
 70
1
  9
$DIMZIN
 70
8
  9
$DIMBLK
  1

  9
$DIMASO
 70
1
  9
$DIMSHO
 70
1
  9
$DIMPOST
  1

  9
$DIMAPOST
  1

  9
$DIMALT
 70
0
  9
$DIMALTD
 70
3
  9
$DIMALTF
 40
0.03937007874
  9
$DIMLFAC
 40
1.0
  9
$DIMTOFL
 70
1
  9
$DIMTVP
 40
0.0
  9
$DIMTIX
 70
0
  9
$DIMSOXD
 70
0
  9
$DIMSAH
 70
0
  9
$DIMBLK1
  1

  9
$DIMBLK2
  1

  9
$DIMSTYLE
  2
ISO-25
  9
$DIMCLRD
 70
0
  9
$DIMCLRE
 70
0
  9
$DIMCLRT
 70
0
  9
$DIMTFAC
 40
1.0
  9
$DIMGAP
 40
0.625
  9
$DIMJUST
 70
0
  9
$DIMSD1
 70
0
  9
$DIMSD2
 70
0
  9
$DIMTOLJ
 70
0
  9
$DIMTZIN
 70
8
  9
$DIMALTZ
 70
0
  9
$DIMALTTZ
 70
0
  9
$DIMUPT
 70
0
  9
$DIMDEC
 70
2
  9
$DIMTDEC
 70
2
  9
$DIMALTU
 70
2
  9
$DIMALTTD
 70
3
  9
$DIMTXSTY
  7
Standard
  9
$DIMAUNIT
 70
0
  9
$DIMADEC
 70
0
  9
$DIMALTRND
 40
0.0
  9
$DIMAZIN
 70
0
  9
$DIMDSEP
 70
44
  9
$DIMATFIT
 70
3
  9
$DIMFRAC
 70
0
  9
$DIMLDRBLK
  1

  9
$DIMLUNIT
 70
2
  9
$DIMLWD
 70
-2
  9
$DIMLWE
 70
-2
  9
$DIMTMOVE
 70
0
  9
$DIMFXL
 40
1.0
  9
$DIMFXLON
 70
0
  9
$DIMJOGANG
 40
0.785398163397
  9
$DIMTFILL
 70
0
  9
$DIMTFILLCLR
 70
0
  9
$DIMARCSYM
 70
0
  9
$DIMLTYPE
  6

  9
$DIMLTEX1
  6

  9
$DIMLTEX2
  6

  9
$DIMTXTDIRECTION
 70
0
  9
$LUNITS
 70
2
  9
$LUPREC
 70
4
  9
$SKETCHINC
 40
1.0
  9
$FILLETRAD
 40
10.0
  9
$AUNITS
 70
0
  9
$AUPREC
 70
2
  9
$MENU
  1
.
  9
$ELEVATION
 40
0.0
  9
$PELEVATION
 40
0.0
  9
$THICKNESS
 40
0.0
  9
$LIMCHECK
 70
0
  9
$CHAMFERA
 40
0.0
  9
$CHAMFERB
 40
0.0
  9
$CHAMFERC
 40
0.0
  9
$CHAMFERD
 40
0.0
  9
$SKPOLY
 70
0
  9
$TDCREATE
 40
2461208.4692361113
  9
$TDUCREATE
 40
2458532.153996898
  9
$TDUPDATE
 40
2461208.4692361113
  9
$TDUUPDATE
 40
2458532.1544311
  9
$TDINDWG
 40
0.0
  9
$TDUSRTIMER
 40
0.0
  9
$USRTIMER
 70
1
  9
$ANGBASE
 50
0.0
  9
$ANGDIR
 70
0
  9
$PDMODE
 70
0
  9
$PDSIZE
 40
0.0
  9
$PLINEWID
 40
0.0
  9
$SPLFRAME
 70
0
  9
$SPLINETYPE
 70
6
  9
$SPLINESEGS
 70
8
  9
$HANDSEED
  5
2BB
  9
$SURFTAB1
 70
6
  9
$SURFTAB2
 70
6
  9
$SURFTYPE
 70
6
  9
$SURFU
 70
6
  9
$SURFV
 70
6
  9
$UCSBASE
  2

  9
$UCSNAME
  2

  9
$UCSORG
 10
0.0
 20
0.0
 30
0.0
  9
$UCSXDIR
 10
1.0
 20
0.0
 30
0.0
  9
$UCSYDIR
 10
0.0
 20
1.0
 30
0.0
  9
$UCSORTHOREF
  2

  9
$UCSORTHOVIEW
 70
0
  9
$UCSORGTOP
 10
0.0
 20
0.0
 30
0.0
  9
$UCSORGBOTTOM
 10
0.0
 20
0.0
 30
0.0
  9
$UCSORGLEFT
 10
0.0
 20
0.0
 30
0.0
  9
$UCSORGRIGHT
 10
0.0
 20
0.0
 30
0.0
  9
$UCSORGFRONT
 10
0.0
 20
0.0
 30
0.0
  9
$UCSORGBACK
 10
0.0
 20
0.0
 30
0.0
  9
$PUCSBASE
  2

  9
$PUCSNAME
  2

  9
$PUCSORG
 10
0.0
 20
0.0
 30
0.0
  9
$PUCSXDIR
 10
1.0
 20
0.0
 30
0.0
  9
$PUCSYDIR
 10
0.0
 20
1.0
 30
0.0
  9
$PUCSORTHOREF
  2

  9
$PUCSORTHOVIEW
 70
0
  9
$PUCSORGTOP
 10
0.0
 20
0.0
 30
0.0
  9
$PUCSORGBOTTOM
 10
0.0
 20
0.0
 30
0.0
  9
$PUCSORGLEFT
 10
0.0
 20
0.0
 30
0.0
  9
$PUCSORGRIGHT
 10
0.0
 20
0.0
 30
0.0
  9
$PUCSORGFRONT
 10
0.0
 20
0.0
 30
0.0
  9
$PUCSORGBACK
 10
0.0
 20
0.0
 30
0.0
  9
$USERI1
 70
0
  9
$USERI2
 70
0
  9
$USERI3
 70
0
  9
$USERI4
 70
0
  9
$USERI5
 70
0
  9
$USERR1
 40
0.0
  9
$USERR2
 40
0.0
  9
$USERR3
 40
0.0
  9
$USERR4
 40
0.0
  9
$USERR5
 40
0.0
  9
$WORLDVIEW
 70
1
  9
$SHADEDGE
 70
3
  9
$SHADEDIF
 70
70
  9
$TILEMODE
 70
1
  9
$MAXACTVP
 70
64
  9
$PINSBASE
 10
0.0
 20
0.0
 30
0.0
  9
$PLIMCHECK
 70
0
  9
$PEXTMIN
 10
1e+20
 20
1e+20
 30
1e+20
  9
$PEXTMAX
 10
-1e+20
 20
-1e+20
 30
-1e+20
  9
$PLIMMIN
 10
0.0
 20
0.0
  9
$PLIMMAX
 10
420.0
 20
297.0
  9
$UNITMODE
 70
0
  9
$VISRETAIN
 70
1
  9
$PLINEGEN
 70
0
  9
$PSLTSCALE
 70
1
  9
$TREEDEPTH
 70
3020
  9
$CMLSTYLE
  2
Standard
  9
$CMLJUST
 70
0
  9
$CMLSCALE
 40
20.0
  9
$PROXYGRAPHICS
 70
1
  9
$MEASUREMENT
 70
1
  9
$CELWEIGHT
370
-1
  9
$ENDCAPS
280
0
  9
$JOINSTYLE
280
0
  9
$LWDISPLAY
290
0
  9
$INSUNITS
 70
6
  9
$HYPERLINKBASE
  1

  9
$STYLESHEET
  1

  9
$XEDIT
290
1
  9
$CEPSNTYPE
380
0
  9
$PSTYLEMODE
290
1
  9
$FINGERPRINTGUID
  2
{BDA33C7D-52CD-4CF1-A0F7-CC441C6C0B02}
  9
$VERSIONGUID
  2
{7E6C162E-317D-467C-9B16-CE78F2B172DF}
  9
$EXTNAMES
290
1
  9
$PSVPSCALE
 40
0.0
  9
$OLESTARTUP
290
0
  9
$SORTENTS
280
127
  9
$INDEXCTL
280
0
  9
$HIDETEXT
280
1
  9
$XCLIPFRAME
280
1
  9
$HALOGAP
280
0
  9
$OBSCOLOR
 70
257
  9
$OBSLTYPE
280
0
  9
$INTERSECTIONDISPLAY
280
0
  9
$INTERSECTIONCOLOR
 70
257
  9
$DIMASSOC
280
2
  9
$PROJECTNAME
  1

  9
$CAMERADISPLAY
290
0
  9
$LENSLENGTH
 40
50.0
  9
$CAMERAHEIGHT
 40
0.0
  9
$STEPSPERSEC
 40
24.0
  9
$STEPSIZE
 40
100.0
  9
$3DDWFPREC
 40
2.0
  9
$PSOLWIDTH
 40
0.005
  9
$PSOLHEIGHT
 40
0.08
  9
$LOFTANG1
 40
1.570796326795
  9
$LOFTANG2
 40
1.570796326795
  9
$LOFTMAG1
 40
0.0
  9
$LOFTMAG2
 40
0.0
  9
$LOFTPARAM
 70
7
  9
$LOFTNORMALS
280
1
  9
$LATITUDE
 40
37.795
  9
$LONGITUDE
 40
-122.394
  9
$NORTHDIRECTION
 40
0.0
  9
$TIMEZONE
 70
-8000
  9
$LIGHTGLYPHDISPLAY
280
1
  9
$TILEMODELIGHTSYNCH
280
1
  9
$CMATERIAL
347
20
  9
$SOLIDHIST
280
0
  9
$SHOWHIST
280
1
  9
$DWFFRAME
280
2
  9
$DGNFRAME
280
2
  9
$REALWORLDSCALE
290
1
  9
$INTERFERECOLOR
 62
256
  9
$CSHADOW
280
0
  9
$SHADOWPLANELOCATION
 40
0.0
  0
ENDSEC
  0
SECTION
  2
CLASSES
  0
CLASS
  1
ACDBDICTIONARYWDFLT
  2
AcDbDictionaryWithDefault
  3
ObjectDBX Classes
 90
0
 91
0
280
0
281
0
  0
CLASS
  1
SUN
  2
AcDbSun
  3
SCENEOE
 90
1153
 91
0
280
0
281
0
  0
CLASS
  1
VISUALSTYLE
  2
AcDbVisualStyle
  3
ObjectDBX Classes
 90
4095
 91
0
280
0
281
0
  0
CLASS
  1
MATERIAL
  2
AcDbMaterial
  3
ObjectDBX Classes
 90
1153
 91
0
280
0
281
0
  0
CLASS
  1
SCALE
  2
AcDbScale
  3
ObjectDBX Classes
 90
1153
 91
0
280
0
281
0
  0
CLASS
  1
TABLESTYLE
  2
AcDbTableStyle
  3
ObjectDBX Classes
 90
4095
 91
0
280
0
281
0
  0
CLASS
  1
MLEADERSTYLE
  2
AcDbMLeaderStyle
  3
ACDB_MLEADERSTYLE_CLASS
 90
4095
 91
0
280
0
281
0
  0
CLASS
  1
DICTIONARYVAR
  2
AcDbDictionaryVar
  3
ObjectDBX Classes
 90
0
 91
0
280
0
281
0
  0
CLASS
  1
CELLSTYLEMAP
  2
AcDbCellStyleMap
  3
ObjectDBX Classes
 90
1152
 91
0
280
0
281
0
  0
CLASS
  1
MENTALRAYRENDERSETTINGS
  2
AcDbMentalRayRenderSettings
  3
SCENEOE
 90
1024
 91
0
280
0
281
0
  0
CLASS
  1
ACDBDETAILVIEWSTYLE
  2
AcDbDetailViewStyle
  3
ObjectDBX Classes
 90
1025
 91
0
280
0
281
0
  0
CLASS
  1
ACDBSECTIONVIEWSTYLE
  2
AcDbSectionViewStyle
  3
ObjectDBX Classes
 90
1025
 91
0
280
0
281
0
  0
CLASS
  1
RASTERVARIABLES
  2
AcDbRasterVariables
  3
ISM
 90
0
 91
0
280
0
281
0
  0
CLASS
  1
LAYOUT
  2
AcDbLayout
  3
ObjectDBX Classes
 90
0
 91
0
280
0
281
0
  0
CLASS
  1
ACDBPLACEHOLDER
  2
AcDbPlaceHolder
  3
ObjectDBX Classes
 90
0
 91
0
280
0
281
0
  0
ENDSEC
  0
SECTION
  2
TABLES
  0
TABLE
  2
VPORT
  5
8
330
0
100
AcDbSymbolTable
 70
1
  0
VPORT
  5
23
330
8
100
AcDbSymbolTableRecord
100
AcDbViewportTableRecord
  2
*Active
 70
0
 10
0.0
 20
0.0
 11
1.0
 21
1.0
 12
0.0
 22
0.0
 13
0.0
 23
0.0
 14
0.5
 24
0.5
 15
0.5
 25
0.5
 16
0.0
 26
0.0
 36
1.0
 17
0.0
 27
0.0
 37
0.0
 40
1000.0
 41
1.34
 42
50.0
 43
0.0
 44
0.0
 50
0.0
 51
0.0
 71
0
 72
1000
 73
1
 74
3
 75
0
 76
0
 77
0
 78
0
281
0
 65
0
146
0.0
  0
ENDTAB
  0
TABLE
  2
LTYPE
  5
2
330
0
100
AcDbSymbolTable
 70
3
  0
LTYPE
  5
24
330
2
100
AcDbSymbolTableRecord
100
AcDbLinetypeTableRecord
  2
ByBlock
 70
0
  3

 72
65
 73
0
 40
0.0
  0
LTYPE
  5
25
330
2
100
AcDbSymbolTableRecord
100
AcDbLinetypeTableRecord
  2
ByLayer
 70
0
  3

 72
65
 73
0
 40
0.0
  0
LTYPE
  5
26
330
2
100
AcDbSymbolTableRecord
100
AcDbLinetypeTableRecord
  2
Continuous
 70
0
  3

 72
65
 73
0
 40
0.0
  0
ENDTAB
  0
TABLE
  2
LAYER
  5
1
330
0
100
AcDbSymbolTable
 70
21
  0
LAYER
  5
27
330
1
100
AcDbSymbolTableRecord
100
AcDbLayerTableRecord
  2
0
 70
0
 62
7
  6
Continuous
370
-3
390
13
347
21
  0
LAYER
  5
28
330
1
100
AcDbSymbolTableRecord
100
AcDbLayerTableRecord
  2
Defpoints
 70
0
 62
7
  6
Continuous
290
0
370
-3
390
13
347
21
  0
LAYER
  5
2F
330
1
100
AcDbSymbolTableRecord
100
AcDbLayerTableRecord
  2
DEVICES
 70
0
 62
7
  6
Continuous
370
-3
390
13
347
21
  0
LAYER
  5
30
330
1
100
AcDbSymbolTableRecord
100
AcDbLayerTableRecord
  2
DEVICE_TEXT
 70
0
 62
7
  6
Continuous
370
-3
390
13
347
21
  0
LAYER
  5
31
330
1
100
AcDbSymbolTableRecord
100
AcDbLayerTableRecord
  2
HDMI
 70
0
 62
40
  6
Continuous
370
-3
390
13
347
21
  0
LAYER
  5
32
330
1
100
AcDbSymbolTableRecord
100
AcDbLayerTableRecord
  2
SDI
 70
0
 62
94
  6
Continuous
370
-3
390
13
347
21
  0
LAYER
  5
33
330
1
100
AcDbSymbolTableRecord
100
AcDbLayerTableRecord
  2
DANTE
 70
0
 62
191
  6
Continuous
370
-3
390
13
347
21
  0
LAYER
  5
34
330
1
100
AcDbSymbolTableRecord
100
AcDbLayerTableRecord
  2
ETHERNET
 70
0
 62
84
  6
Continuous
370
-3
390
13
347
21
  0
LAYER
  5
35
330
1
100
AcDbSymbolTableRecord
100
AcDbLayerTableRecord
  2
USB
 70
0
 62
84
  6
Continuous
370
-3
390
13
347
21
  0
LAYER
  5
36
330
1
100
AcDbSymbolTableRecord
100
AcDbLayerTableRecord
  2
DISPLAYPORT
 70
0
 62
84
  6
Continuous
370
-3
390
13
347
21
  0
LAYER
  5
37
330
1
100
AcDbSymbolTableRecord
100
AcDbLayerTableRecord
  2
SPEAKER_LEVEL
 70
0
 62
1
  6
Continuous
370
-3
390
13
347
21
  0
LAYER
  5
38
330
1
100
AcDbSymbolTableRecord
100
AcDbLayerTableRecord
  2
ANALOG_AUDIO
 70
0
 62
30
  6
Continuous
370
-3
390
13
347
21
  0
LAYER
  5
39
330
1
100
AcDbSymbolTableRecord
100
AcDbLayerTableRecord
  2
NDI
 70
0
 62
30
  6
Continuous
370
-3
390
13
347
21
  0
LAYER
  5
3A
330
1
100
AcDbSymbolTableRecord
100
AcDbLayerTableRecord
  2
HDBASET
 70
0
 62
92
  6
Continuous
370
-3
390
13
347
21
  0
LAYER
  5
3B
330
1
100
AcDbSymbolTableRecord
100
AcDbLayerTableRecord
  2
FIBER
 70
0
 62
130
  6
Continuous
370
-3
390
13
347
21
  0
LAYER
  5
3C
330
1
100
AcDbSymbolTableRecord
100
AcDbLayerTableRecord
  2
RS422
 70
0
 62
50
  6
Continuous
370
-3
390
13
347
21
  0
LAYER
  5
3D
330
1
100
AcDbSymbolTableRecord
100
AcDbLayerTableRecord
  2
GPIO
 70
0
 62
50
  6
Continuous
370
-3
390
13
347
21
  0
LAYER
  5
3E
330
1
100
AcDbSymbolTableRecord
100
AcDbLayerTableRecord
  2
RF
 70
0
 62
8
  6
Continuous
370
-3
390
13
347
21
  0
LAYER
  5
3F
330
1
100
AcDbSymbolTableRecord
100
AcDbLayerTableRecord
  2
TITLE
 70
0
 62
7
  6
Continuous
370
-3
390
13
347
21
  0
LAYER
  5
40
330
1
100
AcDbSymbolTableRecord
100
AcDbLayerTableRecord
  2
BORDER
 70
0
 62
7
  6
Continuous
370
-3
390
13
347
21
  0
LAYER
  5
41
330
1
100
AcDbSymbolTableRecord
100
AcDbLayerTableRecord
  2
NOTES
 70
0
 62
8
  6
Continuous
370
-3
390
13
347
21
  0
ENDTAB
  0
TABLE
  2
STYLE
  5
5
330
0
100
AcDbSymbolTable
 70
1
  0
STYLE
  5
29
330
5
100
AcDbSymbolTableRecord
100
AcDbTextStyleTableRecord
  2
Standard
 70
0
 40
0.0
 41
1.0
 50
0.0
 71
0
 42
2.5
  3
txt
  4

  0
ENDTAB
  0
TABLE
  2
VIEW
  5
7
330
0
100
AcDbSymbolTable
 70
0
  0
ENDTAB
  0
TABLE
  2
UCS
  5
6
330
0
100
AcDbSymbolTable
 70
0
  0
ENDTAB
  0
TABLE
  2
APPID
  5
3
330
0
100
AcDbSymbolTable
 70
3
  0
APPID
  5
2A
330
3
100
AcDbSymbolTableRecord
100
AcDbRegAppTableRecord
  2
ACAD
 70
0
  0
APPID
  5
2B8
330
3
100
AcDbSymbolTableRecord
100
AcDbRegAppTableRecord
  2
HATCHBACKGROUNDCOLOR
 70
0
  0
APPID
  5
2B9
330
3
100
AcDbSymbolTableRecord
100
AcDbRegAppTableRecord
  2
EZDXF
 70
0
  0
ENDTAB
  0
TABLE
  2
DIMSTYLE
  5
4
330
0
100
AcDbSymbolTable
 70
1
100
AcDbDimStyleTable
  0
DIMSTYLE
105
2B
330
4
100
AcDbSymbolTableRecord
100
AcDbDimStyleTableRecord
  2
Standard
 70
0
 40
1.0
 41
2.5
 42
0.625
 43
3.75
 44
1.25
 45
0.0
 46
0.0
 47
0.0
 48
0.0
 49
2.5
140
2.5
141
2.5
142
0.0
143
0.03937007874
144
1.0
145
0.0
146
1.0
147
0.625
148
0.0
 69
0
 70
0
 71
0
 72
0
 73
0
 74
0
 75
0
 76
0
 77
1
 78
8
 79
3
170
0
171
3
172
1
173
0
174
0
175
0
176
0
177
0
178
0
179
2
271
2
272
2
273
2
274
3
275
0
276
0
277
2
278
44
279
0
280
0
281
0
282
0
283
0
284
8
285
0
286
0
288
0
289
3
290
0
371
-2
372
-2
  0
ENDTAB
  0
TABLE
  2
BLOCK_RECORD
  5
9
330
0
100
AcDbSymbolTable
 70
2
  0
BLOCK_RECORD
  5
17
330
9
100
AcDbSymbolTableRecord
100
AcDbBlockTableRecord
  2
*Model_Space
340
1A
 70
0
280
1
281
0
  0
BLOCK_RECORD
  5
1B
330
9
100
AcDbSymbolTableRecord
100
AcDbBlockTableRecord
  2
*Paper_Space
340
1E
 70
0
280
1
281
0
  0
ENDTAB
  0
ENDSEC
  0
SECTION
  2
BLOCKS
  0
BLOCK
  5
18
330
17
100
AcDbEntity
  8
0
100
AcDbBlockBegin
  2
*Model_Space
 70
0
 10
0.0
 20
0.0
 30
0.0
  3
*Model_Space
  1

  0
ENDBLK
  5
19
330
17
100
AcDbEntity
  8
0
100
AcDbBlockEnd
  0
BLOCK
  5
1C
330
1B
100
AcDbEntity
  8
0
100
AcDbBlockBegin
  2
*Paper_Space
 70
0
 10
0.0
 20
0.0
 30
0.0
  3
*Paper_Space
  1

  0
ENDBLK
  5
1D
330
1B
100
AcDbEntity
  8
0
100
AcDbBlockEnd
  0
ENDSEC
  0
SECTION
  2
ENTITIES
  0
LWPOLYLINE
  5
42
330
17
100
AcDbEntity
  8
BORDER
370
50
100
AcDbPolyline
 90
5
 70
0
 10
10.0
 20
10.0
 10
410.0
 20
10.0
 10
410.0
 20
287.0
 10
10.0
 20
287.0
 10
10.0
 20
10.0
  0
LWPOLYLINE
  5
43
330
17
100
AcDbEntity
  8
TITLE
100
AcDbPolyline
 90
5
 70
0
 10
290.0
 20
10.0
 10
410.0
 20
10.0
 10
410.0
 20
35.0
 10
290.0
 20
35.0
 10
290.0
 20
10.0
  0
TEXT
  5
44
330
17
100
AcDbEntity
  8
TITLE
100
AcDbText
 10
292.0
 20
29.0
 30
0.0
 40
2.5
  1
Boardroom Pro
100
AcDbText
  0
TEXT
  5
45
330
17
100
AcDbEntity
  8
TITLE
100
AcDbText
 10
292.0
 20
24.0
 30
0.0
 40
1.8
  1
AV Signal Flow Diagram
100
AcDbText
  0
TEXT
  5
46
330
17
100
AcDbEntity
  8
TITLE
100
AcDbText
 10
292.0
 20
14.0
 30
0.0
 40
1.8
  1
Date: 2026-06-16
100
AcDbText
  0
TEXT
  5
47
330
17
100
AcDbEntity
  8
TITLE
100
AcDbText
 10
350.0
 20
14.0
 30
0.0
 40
1.8
  1
Scale: 1:1  Units: mm
100
AcDbText
  0
TEXT
  5
48
330
17
100
AcDbEntity
  8
NOTES
100
AcDbText
 10
12.0
 20
282.0
 30
0.0
 40
1.8
  1
SIGNAL LEGEND
100
AcDbText
  0
LINE
  5
49
330
17
100
AcDbEntity
  8
HDMI
370
35
100
AcDbLine
 10
12.0
 20
278.0
 30
0.0
 11
20.0
 21
278.0
 31
0.0
  0
TEXT
  5
4A
330
17
100
AcDbEntity
  8
NOTES
100
AcDbText
 10
22.0
 20
277.0
 30
0.0
 40
1.8
  1
HDMI
100
AcDbText
  0
LINE
  5
4B
330
17
100
AcDbEntity
  8
SDI
370
35
100
AcDbLine
 10
12.0
 20
273.0
 30
0.0
 11
20.0
 21
273.0
 31
0.0
  0
TEXT
  5
4C
330
17
100
AcDbEntity
  8
NOTES
100
AcDbText
 10
22.0
 20
272.0
 30
0.0
 40
1.8
  1
SDI
100
AcDbText
  0
LINE
  5
4D
330
17
100
AcDbEntity
  8
DANTE
370
35
100
AcDbLine
 10
12.0
 20
268.0
 30
0.0
 11
20.0
 21
268.0
 31
0.0
  0
TEXT
  5
4E
330
17
100
AcDbEntity
  8
NOTES
100
AcDbText
 10
22.0
 20
267.0
 30
0.0
 40
1.8
  1
Dante
100
AcDbText
  0
LINE
  5
4F
330
17
100
AcDbEntity
  8
ETHERNET
370
35
100
AcDbLine
 10
12.0
 20
263.0
 30
0.0
 11
20.0
 21
263.0
 31
0.0
  0
TEXT
  5
50
330
17
100
AcDbEntity
  8
NOTES
100
AcDbText
 10
22.0
 20
262.0
 30
0.0
 40
1.8
  1
Ethernet/RJ45
100
AcDbText
  0
LINE
  5
51
330
17
100
AcDbEntity
  8
USB
370
35
100
AcDbLine
 10
12.0
 20
258.0
 30
0.0
 11
20.0
 21
258.0
 31
0.0
  0
TEXT
  5
52
330
17
100
AcDbEntity
  8
NOTES
100
AcDbText
 10
22.0
 20
257.0
 30
0.0
 40
1.8
  1
USB
100
AcDbText
  0
LINE
  5
53
330
17
100
AcDbEntity
  8
SPEAKER_LEVEL
370
35
100
AcDbLine
 10
12.0
 20
253.0
 30
0.0
 11
20.0
 21
253.0
 31
0.0
  0
TEXT
  5
54
330
17
100
AcDbEntity
  8
NOTES
100
AcDbText
 10
22.0
 20
252.0
 30
0.0
 40
1.8
  1
Speaker Level
100
AcDbText
  0
LINE
  5
55
330
17
100
AcDbEntity
  8
ANALOG_AUDIO
370
35
100
AcDbLine
 10
12.0
 20
248.0
 30
0.0
 11
20.0
 21
248.0
 31
0.0
  0
TEXT
  5
56
330
17
100
AcDbEntity
  8
NOTES
100
AcDbText
 10
22.0
 20
247.0
 30
0.0
 40
1.8
  1
Analog Audio
100
AcDbText
  0
LINE
  5
57
330
17
100
AcDbEntity
  8
NDI
370
35
100
AcDbLine
 10
12.0
 20
243.0
 30
0.0
 11
20.0
 21
243.0
 31
0.0
  0
TEXT
  5
58
330
17
100
AcDbEntity
  8
NOTES
100
AcDbText
 10
22.0
 20
242.0
 30
0.0
 40
1.8
  1
NDI
100
AcDbText
  0
LINE
  5
59
330
17
100
AcDbEntity
  8
HDBASET
370
35
100
AcDbLine
 10
12.0
 20
238.0
 30
0.0
 11
20.0
 21
238.0
 31
0.0
  0
TEXT
  5
5A
330
17
100
AcDbEntity
  8
NOTES
100
AcDbText
 10
22.0
 20
237.0
 30
0.0
 40
1.8
  1
HDBaseT
100
AcDbText
  0
LINE
  5
5B
330
17
100
AcDbEntity
  8
FIBER
370
35
100
AcDbLine
 10
12.0
 20
233.0
 30
0.0
 11
20.0
 21
233.0
 31
0.0
  0
TEXT
  5
5C
330
17
100
AcDbEntity
  8
NOTES
100
AcDbText
 10
22.0
 20
232.0
 30
0.0
 40
1.8
  1
Fiber
100
AcDbText
  0
LWPOLYLINE
  5
5D
330
17
100
AcDbEntity
  8
DEVICES
370
35
100
AcDbPolyline
 90
5
 70
0
 10
229.928
 20
596.7184000000001
 10
272.264
 20
596.7184000000001
 10
272.264
 20
641.7004000000001
 10
229.928
 20
641.7004000000001
 10
229.928
 20
596.7184000000001
  0
LWPOLYLINE
  5
5E
330
17
100
AcDbEntity
  8
DEVICES
100
AcDbPolyline
 90
2
 70
0
 10
229.928
 20
631.1164000000001
 10
272.264
 20
631.1164000000001
  0
TEXT
  5
5F
330
17
100
AcDbEntity
  8
DEVICE_TEXT
100
AcDbText
 10
230.928
 20
633.6164000000001
 30
0.0
 40
2.5
  1
Cisco PTZ 4K Camera 2
100
AcDbText
  0
LINE
  5
60
330
17
100
AcDbEntity
  8
DEVICES
370
5
100
AcDbLine
 10
229.928
 20
631.1164000000001
 30
0.0
 11
272.264
 21
631.1164000000001
 31
0.0
  0
TEXT
  5
61
330
17
100
AcDbEntity
  8
ETHERNET
100
AcDbText
 10
230.928
 20
625.2368000000001
 30
0.0
 40
1.8
  1
CTS-CAM-P60-K9
100
AcDbText
  0
LINE
  5
62
330
17
100
AcDbEntity
  8
ETHERNET
100
AcDbLine
 10
228.928
 20
627.6766000000001
 30
0.0
 11
230.928
 21
627.6766000000001
 31
0.0
  0
LINE
  5
63
330
17
100
AcDbEntity
  8
ETHERNET
100
AcDbLine
 10
229.928
 20
626.6766000000001
 30
0.0
 11
229.928
 21
628.6766000000001
 31
0.0
  0
LINE
  5
64
330
17
100
AcDbEntity
  8
DEVICES
370
5
100
AcDbLine
 10
229.928
 20
624.2368000000001
 30
0.0
 11
272.264
 21
624.2368000000001
 31
0.0
  0
TEXT
  5
65
330
17
100
AcDbEntity
  8
ETHERNET
100
AcDbText
 10
230.928
 20
618.3572000000001
 30
0.0
 40
1.8
  1
Ethernet RJ45
100
AcDbText
  0
LINE
  5
66
330
17
100
AcDbEntity
  8
ETHERNET
100
AcDbLine
 10
228.928
 20
620.7970000000001
 30
0.0
 11
230.928
 21
620.7970000000001
 31
0.0
  0
LINE
  5
67
330
17
100
AcDbEntity
  8
ETHERNET
100
AcDbLine
 10
229.928
 20
619.7970000000001
 30
0.0
 11
229.928
 21
621.7970000000001
 31
0.0
  0
LINE
  5
68
330
17
100
AcDbEntity
  8
DEVICES
370
13
100
AcDbLine
 10
229.928
 20
617.3572000000001
 30
0.0
 11
272.264
 21
617.3572000000001
 31
0.0
  0
TEXT
  5
69
330
17
100
AcDbEntity
  8
DEVICE_TEXT
100
AcDbText
 10
230.928
 20
617.8572000000001
 30
0.0
 40
1.8
  1
OUTPUT
100
AcDbText
  0
LINE
  5
6A
330
17
100
AcDbEntity
  8
DEVICES
370
5
100
AcDbLine
 10
229.928
 20
610.4776000000002
 30
0.0
 11
272.264
 21
610.4776000000002
 31
0.0
  0
TEXT
  5
6B
330
17
100
AcDbEntity
  8
HDMI
100
AcDbText
 10
271.264
 20
604.5980000000002
 30
0.0
 40
1.8
  1
HDMI Out
100
AcDbText
  0
LINE
  5
6C
330
17
100
AcDbEntity
  8
HDMI
100
AcDbLine
 10
271.264
 20
607.0378000000002
 30
0.0
 11
273.264
 21
607.0378000000002
 31
0.0
  0
LINE
  5
6D
330
17
100
AcDbEntity
  8
HDMI
100
AcDbLine
 10
272.264
 20
606.0378000000002
 30
0.0
 11
272.264
 21
608.0378000000002
 31
0.0
  0
LINE
  5
6E
330
17
100
AcDbEntity
  8
DEVICES
370
5
100
AcDbLine
 10
229.928
 20
603.5980000000002
 30
0.0
 11
272.264
 21
603.5980000000002
 31
0.0
  0
TEXT
  5
6F
330
17
100
AcDbEntity
  8
USB
100
AcDbText
 10
271.264
 20
597.7184000000002
 30
0.0
 40
1.8
  1
USB Out
100
AcDbText
  0
LINE
  5
70
330
17
100
AcDbEntity
  8
USB
100
AcDbLine
 10
271.264
 20
600.1582000000002
 30
0.0
 11
273.264
 21
600.1582000000002
 31
0.0
  0
LINE
  5
71
330
17
100
AcDbEntity
  8
USB
100
AcDbLine
 10
272.264
 20
599.1582000000002
 30
0.0
 11
272.264
 21
601.1582000000002
 31
0.0
  0
TEXT
  5
72
330
17
100
AcDbEntity
  8
NOTES
100
AcDbText
 10
230.928
 20
597.7184000000001
 30
0.0
 40
1.8
  1
S/N: CAM-P60-02
100
AcDbText
  0
LWPOLYLINE
  5
73
330
17
100
AcDbEntity
  8
DEVICES
370
35
100
AcDbPolyline
 90
5
 70
0
 10
277.55600000000004
 20
87.0988000000001
 10
319.892
 20
87.0988000000001
 10
319.892
 20
132.08080000000007
 10
277.55600000000004
 20
132.08080000000007
 10
277.55600000000004
 20
87.0988000000001
  0
LWPOLYLINE
  5
74
330
17
100
AcDbEntity
  8
DEVICES
100
AcDbPolyline
 90
2
 70
0
 10
277.55600000000004
 20
121.49680000000006
 10
319.892
 20
121.49680000000006
  0
TEXT
  5
75
330
17
100
AcDbEntity
  8
DEVICE_TEXT
100
AcDbText
 10
278.55600000000004
 20
123.99680000000006
 30
0.0
 40
2.5
  1
Samsung QM90B Display Right
100
AcDbText
  0
LINE
  5
76
330
17
100
AcDbEntity
  8
DEVICES
370
5
100
AcDbLine
 10
277.55600000000004
 20
121.49680000000006
 30
0.0
 11
319.892
 21
121.49680000000006
 31
0.0
  0
TEXT
  5
77
330
17
100
AcDbEntity
  8
ETHERNET
100
AcDbText
 10
278.55600000000004
 20
115.61720000000007
 30
0.0
 40
1.8
  1
90" Display
100
AcDbText
  0
LINE
  5
78
330
17
100
AcDbEntity
  8
ETHERNET
100
AcDbLine
 10
276.55600000000004
 20
118.05700000000007
 30
0.0
 11
278.55600000000004
 21
118.05700000000007
 31
0.0
  0
LINE
  5
79
330
17
100
AcDbEntity
  8
ETHERNET
100
AcDbLine
 10
277.55600000000004
 20
117.05700000000007
 30
0.0
 11
277.55600000000004
 21
119.05700000000007
 31
0.0
  0
LINE
  5
7A
330
17
100
AcDbEntity
  8
DEVICES
370
5
100
AcDbLine
 10
277.55600000000004
 20
114.61720000000007
 30
0.0
 11
319.892
 21
114.61720000000007
 31
0.0
  0
TEXT
  5
7B
330
17
100
AcDbEntity
  8
ETHERNET
100
AcDbText
 10
278.55600000000004
 20
108.73760000000007
 30
0.0
 40
1.8
  1
Ethernet RJ45
100
AcDbText
  0
LINE
  5
7C
330
17
100
AcDbEntity
  8
ETHERNET
100
AcDbLine
 10
276.55600000000004
 20
111.17740000000008
 30
0.0
 11
278.55600000000004
 21
111.17740000000008
 31
0.0
  0
LINE
  5
7D
330
17
100
AcDbEntity
  8
ETHERNET
100
AcDbLine
 10
277.55600000000004
 20
110.17740000000008
 30
0.0
 11
277.55600000000004
 21
112.17740000000008
 31
0.0
  0
LINE
  5
7E
330
17
100
AcDbEntity
  8
DEVICES
370
13
100
AcDbLine
 10
277.55600000000004
 20
107.73760000000007
 30
0.0
 11
319.892
 21
107.73760000000007
 31
0.0
  0
TEXT
  5
7F
330
17
100
AcDbEntity
  8
DEVICE_TEXT
100
AcDbText
 10
278.55600000000004
 20
108.23760000000007
 30
0.0
 40
1.8
  1
INPUT
100
AcDbText
  0
LINE
  5
80
330
17
100
AcDbEntity
  8
DEVICES
370
5
100
AcDbLine
 10
277.55600000000004
 20
100.85800000000008
 30
0.0
 11
319.892
 21
100.85800000000008
 31
0.0
  0
TEXT
  5
81
330
17
100
AcDbEntity
  8
HDMI
100
AcDbText
 10
278.55600000000004
 20
94.97840000000008
 30
0.0
 40
1.8
  1
HDMI In 1
100
AcDbText
  0
LINE
  5
82
330
17
100
AcDbEntity
  8
HDMI
100
AcDbLine
 10
276.55600000000004
 20
97.41820000000008
 30
0.0
 11
278.55600000000004
 21
97.41820000000008
 31
0.0
  0
LINE
  5
83
330
17
100
AcDbEntity
  8
HDMI
100
AcDbLine
 10
277.55600000000004
 20
96.41820000000008
 30
0.0
 11
277.55600000000004
 21
98.41820000000008
 31
0.0
  0
LINE
  5
84
330
17
100
AcDbEntity
  8
DEVICES
370
5
100
AcDbLine
 10
277.55600000000004
 20
93.97840000000008
 30
0.0
 11
319.892
 21
93.97840000000008
 31
0.0
  0
TEXT
  5
85
330
17
100
AcDbEntity
  8
HDMI
100
AcDbText
 10
278.55600000000004
 20
88.09880000000008
 30
0.0
 40
1.8
  1
HDMI In 2
100
AcDbText
  0
LINE
  5
86
330
17
100
AcDbEntity
  8
HDMI
100
AcDbLine
 10
276.55600000000004
 20
90.53860000000009
 30
0.0
 11
278.55600000000004
 21
90.53860000000009
 31
0.0
  0
LINE
  5
87
330
17
100
AcDbEntity
  8
HDMI
100
AcDbLine
 10
277.55600000000004
 20
89.53860000000009
 30
0.0
 11
277.55600000000004
 21
91.53860000000009
 31
0.0
  0
TEXT
  5
88
330
17
100
AcDbEntity
  8
NOTES
100
AcDbText
 10
278.55600000000004
 20
88.0988000000001
 30
0.0
 40
1.8
  1
S/N: QM90B-R
100
AcDbText
  0
LWPOLYLINE
  5
89
330
17
100
AcDbEntity
  8
DEVICES
370
35
100
AcDbPolyline
 90
5
 70
0
 10
621.5360000000001
 20
40.0
 10
663.8720000000001
 20
40.0
 10
663.8720000000001
 20
71.2228
 10
621.5360000000001
 20
71.2228
 10
621.5360000000001
 20
40.0
  0
LWPOLYLINE
  5
8A
330
17
100
AcDbEntity
  8
DEVICES
100
AcDbPolyline
 90
2
 70
0
 10
621.5360000000001
 20
60.6388
 10
663.8720000000001
 20
60.6388
  0
TEXT
  5
8B
330
17
100
AcDbEntity
  8
DEVICE_TEXT
100
AcDbText
 10
622.5360000000001
 20
63.1388
 30
0.0
 40
2.5
  1
Speaker Zone 7
100
AcDbText
  0
LINE
  5
8C
330
17
100
AcDbEntity
  8
DEVICES
370
5
100
AcDbLine
 10
621.5360000000001
 20
60.6388
 30
0.0
 11
663.8720000000001
 21
60.6388
 31
0.0
  0
TEXT
  5
8D
330
17
100
AcDbEntity
  8
SPEAKER_LEVEL
100
AcDbText
 10
622.5360000000001
 20
54.75920000000001
 30
0.0
 40
1.8
  1
Ceiling Speaker
100
AcDbText
  0
LINE
  5
8E
330
17
100
AcDbEntity
  8
SPEAKER_LEVEL
100
AcDbLine
 10
620.5360000000001
 20
57.199000000000005
 30
0.0
 11
622.5360000000001
 21
57.199000000000005
 31
0.0
  0
LINE
  5
8F
330
17
100
AcDbEntity
  8
SPEAKER_LEVEL
100
AcDbLine
 10
621.5360000000001
 20
56.199000000000005
 30
0.0
 11
621.5360000000001
 21
58.199000000000005
 31
0.0
  0
LINE
  5
90
330
17
100
AcDbEntity
  8
DEVICES
370
13
100
AcDbLine
 10
621.5360000000001
 20
53.75920000000001
 30
0.0
 11
663.8720000000001
 21
53.75920000000001
 31
0.0
  0
TEXT
  5
91
330
17
100
AcDbEntity
  8
DEVICE_TEXT
100
AcDbText
 10
622.5360000000001
 20
54.25920000000001
 30
0.0
 40
1.8
  1
INPUT
100
AcDbText
  0
LINE
  5
92
330
17
100
AcDbEntity
  8
DEVICES
370
5
100
AcDbLine
 10
621.5360000000001
 20
46.87960000000001
 30
0.0
 11
663.8720000000001
 21
46.87960000000001
 31
0.0
  0
TEXT
  5
93
330
17
100
AcDbEntity
  8
SPEAKER_LEVEL
100
AcDbText
 10
622.5360000000001
 20
41.000000000000014
 30
0.0
 40
1.8
  1
Speaker In
100
AcDbText
  0
LINE
  5
94
330
17
100
AcDbEntity
  8
SPEAKER_LEVEL
100
AcDbLine
 10
620.5360000000001
 20
43.43980000000001
 30
0.0
 11
622.5360000000001
 21
43.43980000000001
 31
0.0
  0
LINE
  5
95
330
17
100
AcDbEntity
  8
SPEAKER_LEVEL
100
AcDbLine
 10
621.5360000000001
 20
42.43980000000001
 30
0.0
 11
621.5360000000001
 21
44.43980000000001
 31
0.0
  0
TEXT
  5
96
330
17
100
AcDbEntity
  8
NOTES
100
AcDbText
 10
622.5360000000001
 20
41.0
 30
0.0
 40
1.8
  1
S/N: QSC-AMP8-Z07
100
AcDbText
  0
LWPOLYLINE
  5
97
330
17
100
AcDbEntity
  8
DEVICES
370
35
100
AcDbPolyline
 90
5
 70
0
 10
431.024
 20
40.0
 10
473.36
 20
40.0
 10
473.36
 20
71.2228
 10
431.024
 20
71.2228
 10
431.024
 20
40.0
  0
LWPOLYLINE
  5
98
330
17
100
AcDbEntity
  8
DEVICES
100
AcDbPolyline
 90
2
 70
0
 10
431.024
 20
60.6388
 10
473.36
 20
60.6388
  0
TEXT
  5
99
330
17
100
AcDbEntity
  8
DEVICE_TEXT
100
AcDbText
 10
432.024
 20
63.1388
 30
0.0
 40
2.5
  1
Speaker Zone 5
100
AcDbText
  0
LINE
  5
9A
330
17
100
AcDbEntity
  8
DEVICES
370
5
100
AcDbLine
 10
431.024
 20
60.6388
 30
0.0
 11
473.36
 21
60.6388
 31
0.0
  0
TEXT
  5
9B
330
17
100
AcDbEntity
  8
SPEAKER_LEVEL
100
AcDbText
 10
432.024
 20
54.75920000000001
 30
0.0
 40
1.8
  1
Ceiling Speaker
100
AcDbText
  0
LINE
  5
9C
330
17
100
AcDbEntity
  8
SPEAKER_LEVEL
100
AcDbLine
 10
430.024
 20
57.199000000000005
 30
0.0
 11
432.024
 21
57.199000000000005
 31
0.0
  0
LINE
  5
9D
330
17
100
AcDbEntity
  8
SPEAKER_LEVEL
100
AcDbLine
 10
431.024
 20
56.199000000000005
 30
0.0
 11
431.024
 21
58.199000000000005
 31
0.0
  0
LINE
  5
9E
330
17
100
AcDbEntity
  8
DEVICES
370
13
100
AcDbLine
 10
431.024
 20
53.75920000000001
 30
0.0
 11
473.36
 21
53.75920000000001
 31
0.0
  0
TEXT
  5
9F
330
17
100
AcDbEntity
  8
DEVICE_TEXT
100
AcDbText
 10
432.024
 20
54.25920000000001
 30
0.0
 40
1.8
  1
INPUT
100
AcDbText
  0
LINE
  5
A0
330
17
100
AcDbEntity
  8
DEVICES
370
5
100
AcDbLine
 10
431.024
 20
46.87960000000001
 30
0.0
 11
473.36
 21
46.87960000000001
 31
0.0
  0
TEXT
  5
A1
330
17
100
AcDbEntity
  8
SPEAKER_LEVEL
100
AcDbText
 10
432.024
 20
41.000000000000014
 30
0.0
 40
1.8
  1
Speaker In
100
AcDbText
  0
LINE
  5
A2
330
17
100
AcDbEntity
  8
SPEAKER_LEVEL
100
AcDbLine
 10
430.024
 20
43.43980000000001
 30
0.0
 11
432.024
 21
43.43980000000001
 31
0.0
  0
LINE
  5
A3
330
17
100
AcDbEntity
  8
SPEAKER_LEVEL
100
AcDbLine
 10
431.024
 20
42.43980000000001
 30
0.0
 11
431.024
 21
44.43980000000001
 31
0.0
  0
TEXT
  5
A4
330
17
100
AcDbEntity
  8
NOTES
100
AcDbText
 10
432.024
 20
41.0
 30
0.0
 40
1.8
  1
S/N: QSC-AMP8-Z05
100
AcDbText
  0
LWPOLYLINE
  5
A5
330
17
100
AcDbEntity
  8
DEVICES
370
35
100
AcDbPolyline
 90
5
 70
0
 10
229.928
 20
147.95680000000004
 10
272.264
 20
147.95680000000004
 10
272.264
 20
254.85520000000008
 10
229.928
 20
254.85520000000008
 10
229.928
 20
147.95680000000004
  0
LWPOLYLINE
  5
A6
330
17
100
AcDbEntity
  8
DEVICES
100
AcDbPolyline
 90
2
 70
0
 10
229.928
 20
244.27120000000008
 10
272.264
 20
244.27120000000008
  0
TEXT
  5
A7
330
17
100
AcDbEntity
  8
DEVICE_TEXT
100
AcDbText
 10
230.928
 20
246.77120000000008
 30
0.0
 40
2.5
  1
QSC AMP8 Speaker Amplifier
100
AcDbText
  0
LINE
  5
A8
330
17
100
AcDbEntity
  8
DEVICES
370
5
100
AcDbLine
 10
229.928
 20
244.27120000000008
 30
0.0
 11
272.264
 21
244.27120000000008
 31
0.0
  0
TEXT
  5
A9
330
17
100
AcDbEntity
  8
ETHERNET
100
AcDbText
 10
230.928
 20
238.39160000000007
 30
0.0
 40
1.8
  1
QSC AMP8
100
AcDbText
  0
LINE
  5
AA
330
17
100
AcDbEntity
  8
ETHERNET
100
AcDbLine
 10
228.928
 20
240.83140000000006
 30
0.0
 11
230.928
 21
240.83140000000006
 31
0.0
  0
LINE
  5
AB
330
17
100
AcDbEntity
  8
ETHERNET
100
AcDbLine
 10
229.928
 20
239.83140000000006
 30
0.0
 11
229.928
 21
241.83140000000006
 31
0.0
  0
LINE
  5
AC
330
17
100
AcDbEntity
  8
DEVICES
370
5
100
AcDbLine
 10
229.928
 20
237.39160000000007
 30
0.0
 11
272.264
 21
237.39160000000007
 31
0.0
  0
TEXT
  5
AD
330
17
100
AcDbEntity
  8
ETHERNET
100
AcDbText
 10
230.928
 20
231.51200000000006
 30
0.0
 40
1.8
  1
Ethernet RJ45
100
AcDbText
  0
LINE
  5
AE
330
17
100
AcDbEntity
  8
ETHERNET
100
AcDbLine
 10
228.928
 20
233.95180000000005
 30
0.0
 11
230.928
 21
233.95180000000005
 31
0.0
  0
LINE
  5
AF
330
17
100
AcDbEntity
  8
ETHERNET
100
AcDbLine
 10
229.928
 20
232.95180000000005
 30
0.0
 11
229.928
 21
234.95180000000005
 31
0.0
  0
LINE
  5
B0
330
17
100
AcDbEntity
  8
DEVICES
370
13
100
AcDbLine
 10
229.928
 20
230.51200000000006
 30
0.0
 11
272.264
 21
230.51200000000006
 31
0.0
  0
TEXT
  5
B1
330
17
100
AcDbEntity
  8
DEVICE_TEXT
100
AcDbText
 10
230.928
 20
231.01200000000006
 30
0.0
 40
1.8
  1
INPUT
100
AcDbText
  0
LINE
  5
B2
330
17
100
AcDbEntity
  8
DEVICES
370
5
100
AcDbLine
 10
229.928
 20
223.63240000000005
 30
0.0
 11
272.264
 21
223.63240000000005
 31
0.0
  0
TEXT
  5
B3
330
17
100
AcDbEntity
  8
DANTE
100
AcDbText
 10
230.928
 20
217.75280000000004
 30
0.0
 40
1.8
  1
Dante In 1
100
AcDbText
  0
LINE
  5
B4
330
17
100
AcDbEntity
  8
DANTE
100
AcDbLine
 10
228.928
 20
220.19260000000003
 30
0.0
 11
230.928
 21
220.19260000000003
 31
0.0
  0
LINE
  5
B5
330
17
100
AcDbEntity
  8
DANTE
100
AcDbLine
 10
229.928
 20
219.19260000000003
 30
0.0
 11
229.928
 21
221.19260000000003
 31
0.0
  0
LINE
  5
B6
330
17
100
AcDbEntity
  8
DEVICES
370
5
100
AcDbLine
 10
229.928
 20
216.75280000000004
 30
0.0
 11
272.264
 21
216.75280000000004
 31
0.0
  0
TEXT
  5
B7
330
17
100
AcDbEntity
  8
DANTE
100
AcDbText
 10
230.928
 20
210.87320000000003
 30
0.0
 40
1.8
  1
Dante In 2
100
AcDbText
  0
LINE
  5
B8
330
17
100
AcDbEntity
  8
DANTE
100
AcDbLine
 10
228.928
 20
213.31300000000002
 30
0.0
 11
230.928
 21
213.31300000000002
 31
0.0
  0
LINE
  5
B9
330
17
100
AcDbEntity
  8
DANTE
100
AcDbLine
 10
229.928
 20
212.31300000000002
 30
0.0
 11
229.928
 21
214.31300000000002
 31
0.0
  0
LINE
  5
BA
330
17
100
AcDbEntity
  8
DEVICES
370
13
100
AcDbLine
 10
229.928
 20
209.87320000000003
 30
0.0
 11
272.264
 21
209.87320000000003
 31
0.0
  0
TEXT
  5
BB
330
17
100
AcDbEntity
  8
DEVICE_TEXT
100
AcDbText
 10
230.928
 20
210.37320000000003
 30
0.0
 40
1.8
  1
OUTPUT
100
AcDbText
  0
LINE
  5
BC
330
17
100
AcDbEntity
  8
DEVICES
370
5
100
AcDbLine
 10
229.928
 20
202.99360000000001
 30
0.0
 11
272.264
 21
202.99360000000001
 31
0.0
  0
TEXT
  5
BD
330
17
100
AcDbEntity
  8
SPEAKER_LEVEL
100
AcDbText
 10
271.264
 20
197.114
 30
0.0
 40
1.8
  1
Speaker Out 1
100
AcDbText
  0
LINE
  5
BE
330
17
100
AcDbEntity
  8
SPEAKER_LEVEL
100
AcDbLine
 10
271.264
 20
199.5538
 30
0.0
 11
273.264
 21
199.5538
 31
0.0
  0
LINE
  5
BF
330
17
100
AcDbEntity
  8
SPEAKER_LEVEL
100
AcDbLine
 10
272.264
 20
198.5538
 30
0.0
 11
272.264
 21
200.5538
 31
0.0
  0
LINE
  5
C0
330
17
100
AcDbEntity
  8
DEVICES
370
5
100
AcDbLine
 10
229.928
 20
196.114
 30
0.0
 11
272.264
 21
196.114
 31
0.0
  0
TEXT
  5
C1
330
17
100
AcDbEntity
  8
SPEAKER_LEVEL
100
AcDbText
 10
271.264
 20
190.2344
 30
0.0
 40
1.8
  1
Speaker Out 2
100
AcDbText
  0
LINE
  5
C2
330
17
100
AcDbEntity
  8
SPEAKER_LEVEL
100
AcDbLine
 10
271.264
 20
192.67419999999998
 30
0.0
 11
273.264
 21
192.67419999999998
 31
0.0
  0
LINE
  5
C3
330
17
100
AcDbEntity
  8
SPEAKER_LEVEL
100
AcDbLine
 10
272.264
 20
191.67419999999998
 30
0.0
 11
272.264
 21
193.67419999999998
 31
0.0
  0
LINE
  5
C4
330
17
100
AcDbEntity
  8
DEVICES
370
5
100
AcDbLine
 10
229.928
 20
189.2344
 30
0.0
 11
272.264
 21
189.2344
 31
0.0
  0
TEXT
  5
C5
330
17
100
AcDbEntity
  8
SPEAKER_LEVEL
100
AcDbText
 10
271.264
 20
183.35479999999998
 30
0.0
 40
1.8
  1
Speaker Out 3
100
AcDbText
  0
LINE
  5
C6
330
17
100
AcDbEntity
  8
SPEAKER_LEVEL
100
AcDbLine
 10
271.264
 20
185.79459999999997
 30
0.0
 11
273.264
 21
185.79459999999997
 31
0.0
  0
LINE
  5
C7
330
17
100
AcDbEntity
  8
SPEAKER_LEVEL
100
AcDbLine
 10
272.264
 20
184.79459999999997
 30
0.0
 11
272.264
 21
186.79459999999997
 31
0.0
  0
LINE
  5
C8
330
17
100
AcDbEntity
  8
DEVICES
370
5
100
AcDbLine
 10
229.928
 20
182.35479999999998
 30
0.0
 11
272.264
 21
182.35479999999998
 31
0.0
  0
TEXT
  5
C9
330
17
100
AcDbEntity
  8
SPEAKER_LEVEL
100
AcDbText
 10
271.264
 20
176.47519999999997
 30
0.0
 40
1.8
  1
Speaker Out 4
100
AcDbText
  0
LINE
  5
CA
330
17
100
AcDbEntity
  8
SPEAKER_LEVEL
100
AcDbLine
 10
271.264
 20
178.91499999999996
 30
0.0
 11
273.264
 21
178.91499999999996
 31
0.0
  0
LINE
  5
CB
330
17
100
AcDbEntity
  8
SPEAKER_LEVEL
100
AcDbLine
 10
272.264
 20
177.91499999999996
 30
0.0
 11
272.264
 21
179.91499999999996
 31
0.0
  0
LINE
  5
CC
330
17
100
AcDbEntity
  8
DEVICES
370
5
100
AcDbLine
 10
229.928
 20
175.47519999999997
 30
0.0
 11
272.264
 21
175.47519999999997
 31
0.0
  0
TEXT
  5
CD
330
17
100
AcDbEntity
  8
SPEAKER_LEVEL
100
AcDbText
 10
271.264
 20
169.59559999999996
 30
0.0
 40
1.8
  1
Speaker Out 5
100
AcDbText
  0
LINE
  5
CE
330
17
100
AcDbEntity
  8
SPEAKER_LEVEL
100
AcDbLine
 10
271.264
 20
172.03539999999995
 30
0.0
 11
273.264
 21
172.03539999999995
 31
0.0
  0
LINE
  5
CF
330
17
100
AcDbEntity
  8
SPEAKER_LEVEL
100
AcDbLine
 10
272.264
 20
171.03539999999995
 30
0.0
 11
272.264
 21
173.03539999999995
 31
0.0
  0
LINE
  5
D0
330
17
100
AcDbEntity
  8
DEVICES
370
5
100
AcDbLine
 10
229.928
 20
168.59559999999996
 30
0.0
 11
272.264
 21
168.59559999999996
 31
0.0
  0
TEXT
  5
D1
330
17
100
AcDbEntity
  8
SPEAKER_LEVEL
100
AcDbText
 10
271.264
 20
162.71599999999995
 30
0.0
 40
1.8
  1
Speaker Out 6
100
AcDbText
  0
LINE
  5
D2
330
17
100
AcDbEntity
  8
SPEAKER_LEVEL
100
AcDbLine
 10
271.264
 20
165.15579999999994
 30
0.0
 11
273.264
 21
165.15579999999994
 31
0.0
  0
LINE
  5
D3
330
17
100
AcDbEntity
  8
SPEAKER_LEVEL
100
AcDbLine
 10
272.264
 20
164.15579999999994
 30
0.0
 11
272.264
 21
166.15579999999994
 31
0.0
  0
LINE
  5
D4
330
17
100
AcDbEntity
  8
DEVICES
370
5
100
AcDbLine
 10
229.928
 20
161.71599999999995
 30
0.0
 11
272.264
 21
161.71599999999995
 31
0.0
  0
TEXT
  5
D5
330
17
100
AcDbEntity
  8
SPEAKER_LEVEL
100
AcDbText
 10
271.264
 20
155.83639999999994
 30
0.0
 40
1.8
  1
Speaker Out 7
100
AcDbText
  0
LINE
  5
D6
330
17
100
AcDbEntity
  8
SPEAKER_LEVEL
100
AcDbLine
 10
271.264
 20
158.27619999999993
 30
0.0
 11
273.264
 21
158.27619999999993
 31
0.0
  0
LINE
  5
D7
330
17
100
AcDbEntity
  8
SPEAKER_LEVEL
100
AcDbLine
 10
272.264
 20
157.27619999999993
 30
0.0
 11
272.264
 21
159.27619999999993
 31
0.0
  0
LINE
  5
D8
330
17
100
AcDbEntity
  8
DEVICES
370
5
100
AcDbLine
 10
229.928
 20
154.83639999999994
 30
0.0
 11
272.264
 21
154.83639999999994
 31
0.0
  0
TEXT
  5
D9
330
17
100
AcDbEntity
  8
SPEAKER_LEVEL
100
AcDbText
 10
271.264
 20
148.95679999999993
 30
0.0
 40
1.8
  1
Speaker Out 8
100
AcDbText
  0
LINE
  5
DA
330
17
100
AcDbEntity
  8
SPEAKER_LEVEL
100
AcDbLine
 10
271.264
 20
151.39659999999992
 30
0.0
 11
273.264
 21
151.39659999999992
 31
0.0
  0
LINE
  5
DB
330
17
100
AcDbEntity
  8
SPEAKER_LEVEL
100
AcDbLine
 10
272.264
 20
150.39659999999992
 30
0.0
 11
272.264
 21
152.39659999999992
 31
0.0
  0
TEXT
  5
DC
330
17
100
AcDbEntity
  8
NOTES
100
AcDbText
 10
230.928
 20
148.95680000000004
 30
0.0
 40
1.8
  1
S/N: QSC-AMP8-01
100
AcDbText
  0
LWPOLYLINE
  5
DD
330
17
100
AcDbEntity
  8
DEVICES
370
35
100
AcDbPolyline
 90
5
 70
0
 10
145.256
 20
40.0
 10
187.59199999999998
 20
40.0
 10
187.59199999999998
 20
71.2228
 10
145.256
 20
71.2228
 10
145.256
 20
40.0
  0
LWPOLYLINE
  5
DE
330
17
100
AcDbEntity
  8
DEVICES
100
AcDbPolyline
 90
2
 70
0
 10
145.256
 20
60.6388
 10
187.59199999999998
 20
60.6388
  0
TEXT
  5
DF
330
17
100
AcDbEntity
  8
DEVICE_TEXT
100
AcDbText
 10
146.256
 20
63.1388
 30
0.0
 40
2.5
  1
Speaker Zone 2
100
AcDbText
  0
LINE
  5
E0
330
17
100
AcDbEntity
  8
DEVICES
370
5
100
AcDbLine
 10
145.256
 20
60.6388
 30
0.0
 11
187.59199999999998
 21
60.6388
 31
0.0
  0
TEXT
  5
E1
330
17
100
AcDbEntity
  8
SPEAKER_LEVEL
100
AcDbText
 10
146.256
 20
54.75920000000001
 30
0.0
 40
1.8
  1
Ceiling Speaker
100
AcDbText
  0
LINE
  5
E2
330
17
100
AcDbEntity
  8
SPEAKER_LEVEL
100
AcDbLine
 10
144.256
 20
57.199000000000005
 30
0.0
 11
146.256
 21
57.199000000000005
 31
0.0
  0
LINE
  5
E3
330
17
100
AcDbEntity
  8
SPEAKER_LEVEL
100
AcDbLine
 10
145.256
 20
56.199000000000005
 30
0.0
 11
145.256
 21
58.199000000000005
 31
0.0
  0
LINE
  5
E4
330
17
100
AcDbEntity
  8
DEVICES
370
13
100
AcDbLine
 10
145.256
 20
53.75920000000001
 30
0.0
 11
187.59199999999998
 21
53.75920000000001
 31
0.0
  0
TEXT
  5
E5
330
17
100
AcDbEntity
  8
DEVICE_TEXT
100
AcDbText
 10
146.256
 20
54.25920000000001
 30
0.0
 40
1.8
  1
INPUT
100
AcDbText
  0
LINE
  5
E6
330
17
100
AcDbEntity
  8
DEVICES
370
5
100
AcDbLine
 10
145.256
 20
46.87960000000001
 30
0.0
 11
187.59199999999998
 21
46.87960000000001
 31
0.0
  0
TEXT
  5
E7
330
17
100
AcDbEntity
  8
SPEAKER_LEVEL
100
AcDbText
 10
146.256
 20
41.000000000000014
 30
0.0
 40
1.8
  1
Speaker In
100
AcDbText
  0
LINE
  5
E8
330
17
100
AcDbEntity
  8
SPEAKER_LEVEL
100
AcDbLine
 10
144.256
 20
43.43980000000001
 30
0.0
 11
146.256
 21
43.43980000000001
 31
0.0
  0
LINE
  5
E9
330
17
100
AcDbEntity
  8
SPEAKER_LEVEL
100
AcDbLine
 10
145.256
 20
42.43980000000001
 30
0.0
 11
145.256
 21
44.43980000000001
 31
0.0
  0
TEXT
  5
EA
330
17
100
AcDbEntity
  8
NOTES
100
AcDbText
 10
146.256
 20
41.0
 30
0.0
 40
1.8
  1
S/N: QSC-AMP8-Z02
100
AcDbText
  0
LWPOLYLINE
  5
EB
330
17
100
AcDbEntity
  8
DEVICES
370
35
100
AcDbPolyline
 90
5
 70
0
 10
240.512
 20
40.0
 10
282.848
 20
40.0
 10
282.848
 20
71.2228
 10
240.512
 20
71.2228
 10
240.512
 20
40.0
  0
LWPOLYLINE
  5
EC
330
17
100
AcDbEntity
  8
DEVICES
100
AcDbPolyline
 90
2
 70
0
 10
240.512
 20
60.6388
 10
282.848
 20
60.6388
  0
TEXT
  5
ED
330
17
100
AcDbEntity
  8
DEVICE_TEXT
100
AcDbText
 10
241.512
 20
63.1388
 30
0.0
 40
2.5
  1
Speaker Zone 3
100
AcDbText
  0
LINE
  5
EE
330
17
100
AcDbEntity
  8
DEVICES
370
5
100
AcDbLine
 10
240.512
 20
60.6388
 30
0.0
 11
282.848
 21
60.6388
 31
0.0
  0
TEXT
  5
EF
330
17
100
AcDbEntity
  8
SPEAKER_LEVEL
100
AcDbText
 10
241.512
 20
54.75920000000001
 30
0.0
 40
1.8
  1
Ceiling Speaker
100
AcDbText
  0
LINE
  5
F0
330
17
100
AcDbEntity
  8
SPEAKER_LEVEL
100
AcDbLine
 10
239.512
 20
57.199000000000005
 30
0.0
 11
241.512
 21
57.199000000000005
 31
0.0
  0
LINE
  5
F1
330
17
100
AcDbEntity
  8
SPEAKER_LEVEL
100
AcDbLine
 10
240.512
 20
56.199000000000005
 30
0.0
 11
240.512
 21
58.199000000000005
 31
0.0
  0
LINE
  5
F2
330
17
100
AcDbEntity
  8
DEVICES
370
13
100
AcDbLine
 10
240.512
 20
53.75920000000001
 30
0.0
 11
282.848
 21
53.75920000000001
 31
0.0
  0
TEXT
  5
F3
330
17
100
AcDbEntity
  8
DEVICE_TEXT
100
AcDbText
 10
241.512
 20
54.25920000000001
 30
0.0
 40
1.8
  1
INPUT
100
AcDbText
  0
LINE
  5
F4
330
17
100
AcDbEntity
  8
DEVICES
370
5
100
AcDbLine
 10
240.512
 20
46.87960000000001
 30
0.0
 11
282.848
 21
46.87960000000001
 31
0.0
  0
TEXT
  5
F5
330
17
100
AcDbEntity
  8
SPEAKER_LEVEL
100
AcDbText
 10
241.512
 20
41.000000000000014
 30
0.0
 40
1.8
  1
Speaker In
100
AcDbText
  0
LINE
  5
F6
330
17
100
AcDbEntity
  8
SPEAKER_LEVEL
100
AcDbLine
 10
239.512
 20
43.43980000000001
 30
0.0
 11
241.512
 21
43.43980000000001
 31
0.0
  0
LINE
  5
F7
330
17
100
AcDbEntity
  8
SPEAKER_LEVEL
100
AcDbLine
 10
240.512
 20
42.43980000000001
 30
0.0
 11
240.512
 21
44.43980000000001
 31
0.0
  0
TEXT
  5
F8
330
17
100
AcDbEntity
  8
NOTES
100
AcDbText
 10
241.512
 20
41.0
 30
0.0
 40
1.8
  1
S/N: QSC-AMP8-Z03
100
AcDbText
  0
LWPOLYLINE
  5
F9
330
17
100
AcDbEntity
  8
DEVICES
370
35
100
AcDbPolyline
 90
5
 70
0
 10
431.024
 20
542.74
 10
473.36
 20
542.74
 10
473.36
 20
580.8424000000001
 10
431.024
 20
580.8424000000001
 10
431.024
 20
542.74
  0
LWPOLYLINE
  5
FA
330
17
100
AcDbEntity
  8
DEVICES
100
AcDbPolyline
 90
2
 70
0
 10
431.024
 20
570.2584000000002
 10
473.36
 20
570.2584000000002
  0
TEXT
  5
FB
330
17
100
AcDbEntity
  8
DEVICE_TEXT
100
AcDbText
 10
432.024
 20
572.7584000000002
 30
0.0
 40
2.5
  1
Shure ULXD2 Wireless Mic 3
100
AcDbText
  0
LINE
  5
FC
330
17
100
AcDbEntity
  8
DEVICES
370
5
100
AcDbLine
 10
431.024
 20
570.2584000000002
 30
0.0
 11
473.36
 21
570.2584000000002
 31
0.0
  0
TEXT
  5
FD
330
17
100
AcDbEntity
  8
ETHERNET
100
AcDbText
 10
432.024
 20
564.3788000000002
 30
0.0
 40
1.8
  1
ULXD2/B58
100
AcDbText
  0
LINE
  5
FE
330
17
100
AcDbEntity
  8
ETHERNET
100
AcDbLine
 10
430.024
 20
566.8186000000002
 30
0.0
 11
432.024
 21
566.8186000000002
 31
0.0
  0
LINE
  5
FF
330
17
100
AcDbEntity
  8
ETHERNET
100
AcDbLine
 10
431.024
 20
565.8186000000002
 30
0.0
 11
431.024
 21
567.8186000000002
 31
0.0
  0
LINE
  5
100
330
17
100
AcDbEntity
  8
DEVICES
370
5
100
AcDbLine
 10
431.024
 20
563.3788000000002
 30
0.0
 11
473.36
 21
563.3788000000002
 31
0.0
  0
TEXT
  5
101
330
17
100
AcDbEntity
  8
ETHERNET
100
AcDbText
 10
432.024
 20
557.4992000000002
 30
0.0
 40
1.8
  1
Ethernet RJ45
100
AcDbText
  0
LINE
  5
102
330
17
100
AcDbEntity
  8
ETHERNET
100
AcDbLine
 10
430.024
 20
559.9390000000002
 30
0.0
 11
432.024
 21
559.9390000000002
 31
0.0
  0
LINE
  5
103
330
17
100
AcDbEntity
  8
ETHERNET
100
AcDbLine
 10
431.024
 20
558.9390000000002
 30
0.0
 11
431.024
 21
560.9390000000002
 31
0.0
  0
LINE
  5
104
330
17
100
AcDbEntity
  8
DEVICES
370
13
100
AcDbLine
 10
431.024
 20
556.4992000000002
 30
0.0
 11
473.36
 21
556.4992000000002
 31
0.0
  0
TEXT
  5
105
330
17
100
AcDbEntity
  8
DEVICE_TEXT
100
AcDbText
 10
432.024
 20
556.9992000000002
 30
0.0
 40
1.8
  1
OUTPUT
100
AcDbText
  0
LINE
  5
106
330
17
100
AcDbEntity
  8
DEVICES
370
5
100
AcDbLine
 10
431.024
 20
549.6196000000002
 30
0.0
 11
473.36
 21
549.6196000000002
 31
0.0
  0
TEXT
  5
107
330
17
100
AcDbEntity
  8
USB
100
AcDbText
 10
472.36
 20
543.7400000000002
 30
0.0
 40
1.8
  1
USB Out
100
AcDbText
  0
LINE
  5
108
330
17
100
AcDbEntity
  8
USB
100
AcDbLine
 10
472.36
 20
546.1798000000002
 30
0.0
 11
474.36
 21
546.1798000000002
 31
0.0
  0
LINE
  5
109
330
17
100
AcDbEntity
  8
USB
100
AcDbLine
 10
473.36
 20
545.1798000000002
 30
0.0
 11
473.36
 21
547.1798000000002
 31
0.0
  0
TEXT
  5
10A
330
17
100
AcDbEntity
  8
NOTES
100
AcDbText
 10
432.024
 20
543.74
 30
0.0
 40
1.8
  1
S/N: ULXD2-B58-03
100
AcDbText
  0
LWPOLYLINE
  5
10B
330
17
100
AcDbEntity
  8
DEVICES
370
35
100
AcDbPolyline
 90
5
 70
0
 10
50.0
 20
40.0
 10
92.336
 20
40.0
 10
92.336
 20
71.2228
 10
50.0
 20
71.2228
 10
50.0
 20
40.0
  0
LWPOLYLINE
  5
10C
330
17
100
AcDbEntity
  8
DEVICES
100
AcDbPolyline
 90
2
 70
0
 10
50.0
 20
60.6388
 10
92.336
 20
60.6388
  0
TEXT
  5
10D
330
17
100
AcDbEntity
  8
DEVICE_TEXT
100
AcDbText
 10
51.0
 20
63.1388
 30
0.0
 40
2.5
  1
Speaker Zone 1
100
AcDbText
  0
LINE
  5
10E
330
17
100
AcDbEntity
  8
DEVICES
370
5
100
AcDbLine
 10
50.0
 20
60.6388
 30
0.0
 11
92.336
 21
60.6388
 31
0.0
  0
TEXT
  5
10F
330
17
100
AcDbEntity
  8
SPEAKER_LEVEL
100
AcDbText
 10
51.0
 20
54.75920000000001
 30
0.0
 40
1.8
  1
Ceiling Speaker
100
AcDbText
  0
LINE
  5
110
330
17
100
AcDbEntity
  8
SPEAKER_LEVEL
100
AcDbLine
 10
49.0
 20
57.199000000000005
 30
0.0
 11
51.0
 21
57.199000000000005
 31
0.0
  0
LINE
  5
111
330
17
100
AcDbEntity
  8
SPEAKER_LEVEL
100
AcDbLine
 10
50.0
 20
56.199000000000005
 30
0.0
 11
50.0
 21
58.199000000000005
 31
0.0
  0
LINE
  5
112
330
17
100
AcDbEntity
  8
DEVICES
370
13
100
AcDbLine
 10
50.0
 20
53.75920000000001
 30
0.0
 11
92.336
 21
53.75920000000001
 31
0.0
  0
TEXT
  5
113
330
17
100
AcDbEntity
  8
DEVICE_TEXT
100
AcDbText
 10
51.0
 20
54.25920000000001
 30
0.0
 40
1.8
  1
INPUT
100
AcDbText
  0
LINE
  5
114
330
17
100
AcDbEntity
  8
DEVICES
370
5
100
AcDbLine
 10
50.0
 20
46.87960000000001
 30
0.0
 11
92.336
 21
46.87960000000001
 31
0.0
  0
TEXT
  5
115
330
17
100
AcDbEntity
  8
SPEAKER_LEVEL
100
AcDbText
 10
51.0
 20
41.000000000000014
 30
0.0
 40
1.8
  1
Speaker In
100
AcDbText
  0
LINE
  5
116
330
17
100
AcDbEntity
  8
SPEAKER_LEVEL
100
AcDbLine
 10
49.0
 20
43.43980000000001
 30
0.0
 11
51.0
 21
43.43980000000001
 31
0.0
  0
LINE
  5
117
330
17
100
AcDbEntity
  8
SPEAKER_LEVEL
100
AcDbLine
 10
50.0
 20
42.43980000000001
 30
0.0
 11
50.0
 21
44.43980000000001
 31
0.0
  0
TEXT
  5
118
330
17
100
AcDbEntity
  8
NOTES
100
AcDbText
 10
51.0
 20
41.0
 30
0.0
 40
1.8
  1
S/N: QSC-AMP8-Z01
100
AcDbText
  0
LWPOLYLINE
  5
119
330
17
100
AcDbEntity
  8
DEVICES
370
35
100
AcDbPolyline
 90
5
 70
0
 10
277.55600000000004
 20
270.73120000000006
 10
319.892
 20
270.73120000000006
 10
319.892
 20
363.8704000000001
 10
277.55600000000004
 20
363.8704000000001
 10
277.55600000000004
 20
270.73120000000006
  0
LWPOLYLINE
  5
11A
330
17
100
AcDbEntity
  8
DEVICES
100
AcDbPolyline
 90
2
 70
0
 10
277.55600000000004
 20
353.28640000000007
 10
319.892
 20
353.28640000000007
  0
TEXT
  5
11B
330
17
100
AcDbEntity
  8
DEVICE_TEXT
100
AcDbText
 10
278.55600000000004
 20
355.78640000000007
 30
0.0
 40
2.5
  1
Dante Audio Network
100
AcDbText
  0
LINE
  5
11C
330
17
100
AcDbEntity
  8
DEVICES
370
5
100
AcDbLine
 10
277.55600000000004
 20
353.28640000000007
 30
0.0
 11
319.892
 21
353.28640000000007
 31
0.0
  0
TEXT
  5
11D
330
17
100
AcDbEntity
  8
DANTE
100
AcDbText
 10
278.55600000000004
 20
347.4068000000001
 30
0.0
 40
1.8
  1
Dante/AES67
100
AcDbText
  0
LINE
  5
11E
330
17
100
AcDbEntity
  8
DANTE
100
AcDbLine
 10
276.55600000000004
 20
349.8466000000001
 30
0.0
 11
278.55600000000004
 21
349.8466000000001
 31
0.0
  0
LINE
  5
11F
330
17
100
AcDbEntity
  8
DANTE
100
AcDbLine
 10
277.55600000000004
 20
348.8466000000001
 30
0.0
 11
277.55600000000004
 21
350.8466000000001
 31
0.0
  0
LINE
  5
120
330
17
100
AcDbEntity
  8
DEVICES
370
5
100
AcDbLine
 10
277.55600000000004
 20
346.4068000000001
 30
0.0
 11
319.892
 21
346.4068000000001
 31
0.0
  0
TEXT
  5
121
330
17
100
AcDbEntity
  8
ETHERNET
100
AcDbText
 10
278.55600000000004
 20
340.5272000000001
 30
0.0
 40
1.8
  1
Ethernet RJ45
100
AcDbText
  0
LINE
  5
122
330
17
100
AcDbEntity
  8
ETHERNET
100
AcDbLine
 10
276.55600000000004
 20
342.9670000000001
 30
0.0
 11
278.55600000000004
 21
342.9670000000001
 31
0.0
  0
LINE
  5
123
330
17
100
AcDbEntity
  8
ETHERNET
100
AcDbLine
 10
277.55600000000004
 20
341.9670000000001
 30
0.0
 11
277.55600000000004
 21
343.9670000000001
 31
0.0
  0
LINE
  5
124
330
17
100
AcDbEntity
  8
DEVICES
370
13
100
AcDbLine
 10
277.55600000000004
 20
339.5272000000001
 30
0.0
 11
319.892
 21
339.5272000000001
 31
0.0
  0
TEXT
  5
125
330
17
100
AcDbEntity
  8
DEVICE_TEXT
100
AcDbText
 10
278.55600000000004
 20
340.0272000000001
 30
0.0
 40
1.8
  1
INPUT
100
AcDbText
  0
LINE
  5
126
330
17
100
AcDbEntity
  8
DEVICES
370
5
100
AcDbLine
 10
277.55600000000004
 20
332.6476000000001
 30
0.0
 11
319.892
 21
332.6476000000001
 31
0.0
  0
TEXT
  5
127
330
17
100
AcDbEntity
  8
DANTE
100
AcDbText
 10
278.55600000000004
 20
326.76800000000014
 30
0.0
 40
1.8
  1
Dante 1
100
AcDbText
  0
LINE
  5
128
330
17
100
AcDbEntity
  8
DANTE
100
AcDbLine
 10
276.55600000000004
 20
329.20780000000013
 30
0.0
 11
278.55600000000004
 21
329.20780000000013
 31
0.0
  0
LINE
  5
129
330
17
100
AcDbEntity
  8
DANTE
100
AcDbLine
 10
277.55600000000004
 20
328.20780000000013
 30
0.0
 11
277.55600000000004
 21
330.20780000000013
 31
0.0
  0
LINE
  5
12A
330
17
100
AcDbEntity
  8
DEVICES
370
5
100
AcDbLine
 10
277.55600000000004
 20
325.76800000000014
 30
0.0
 11
319.892
 21
325.76800000000014
 31
0.0
  0
TEXT
  5
12B
330
17
100
AcDbEntity
  8
DANTE
100
AcDbText
 10
278.55600000000004
 20
319.88840000000016
 30
0.0
 40
1.8
  1
Dante 2
100
AcDbText
  0
LINE
  5
12C
330
17
100
AcDbEntity
  8
DANTE
100
AcDbLine
 10
276.55600000000004
 20
322.32820000000015
 30
0.0
 11
278.55600000000004
 21
322.32820000000015
 31
0.0
  0
LINE
  5
12D
330
17
100
AcDbEntity
  8
DANTE
100
AcDbLine
 10
277.55600000000004
 20
321.32820000000015
 30
0.0
 11
277.55600000000004
 21
323.32820000000015
 31
0.0
  0
LINE
  5
12E
330
17
100
AcDbEntity
  8
DEVICES
370
5
100
AcDbLine
 10
277.55600000000004
 20
318.88840000000016
 30
0.0
 11
319.892
 21
318.88840000000016
 31
0.0
  0
TEXT
  5
12F
330
17
100
AcDbEntity
  8
DANTE
100
AcDbText
 10
278.55600000000004
 20
313.0088000000002
 30
0.0
 40
1.8
  1
Dante 3
100
AcDbText
  0
LINE
  5
130
330
17
100
AcDbEntity
  8
DANTE
100
AcDbLine
 10
276.55600000000004
 20
315.44860000000017
 30
0.0
 11
278.55600000000004
 21
315.44860000000017
 31
0.0
  0
LINE
  5
131
330
17
100
AcDbEntity
  8
DANTE
100
AcDbLine
 10
277.55600000000004
 20
314.44860000000017
 30
0.0
 11
277.55600000000004
 21
316.44860000000017
 31
0.0
  0
LINE
  5
132
330
17
100
AcDbEntity
  8
DEVICES
370
5
100
AcDbLine
 10
277.55600000000004
 20
312.0088000000002
 30
0.0
 11
319.892
 21
312.0088000000002
 31
0.0
  0
TEXT
  5
133
330
17
100
AcDbEntity
  8
DANTE
100
AcDbText
 10
278.55600000000004
 20
306.1292000000002
 30
0.0
 40
1.8
  1
Dante 4
100
AcDbText
  0
LINE
  5
134
330
17
100
AcDbEntity
  8
DANTE
100
AcDbLine
 10
276.55600000000004
 20
308.5690000000002
 30
0.0
 11
278.55600000000004
 21
308.5690000000002
 31
0.0
  0
LINE
  5
135
330
17
100
AcDbEntity
  8
DANTE
100
AcDbLine
 10
277.55600000000004
 20
307.5690000000002
 30
0.0
 11
277.55600000000004
 21
309.5690000000002
 31
0.0
  0
LINE
  5
136
330
17
100
AcDbEntity
  8
DEVICES
370
13
100
AcDbLine
 10
277.55600000000004
 20
305.1292000000002
 30
0.0
 11
319.892
 21
305.1292000000002
 31
0.0
  0
TEXT
  5
137
330
17
100
AcDbEntity
  8
DEVICE_TEXT
100
AcDbText
 10
278.55600000000004
 20
305.6292000000002
 30
0.0
 40
1.8
  1
OUTPUT
100
AcDbText
  0
LINE
  5
138
330
17
100
AcDbEntity
  8
DEVICES
370
5
100
AcDbLine
 10
277.55600000000004
 20
298.2496000000002
 30
0.0
 11
319.892
 21
298.2496000000002
 31
0.0
  0
TEXT
  5
139
330
17
100
AcDbEntity
  8
DANTE
100
AcDbText
 10
318.892
 20
292.37000000000023
 30
0.0
 40
1.8
  1
Dante 1
100
AcDbText
  0
LINE
  5
13A
330
17
100
AcDbEntity
  8
DANTE
100
AcDbLine
 10
318.892
 20
294.8098000000002
 30
0.0
 11
320.892
 21
294.8098000000002
 31
0.0
  0
LINE
  5
13B
330
17
100
AcDbEntity
  8
DANTE
100
AcDbLine
 10
319.892
 20
293.8098000000002
 30
0.0
 11
319.892
 21
295.8098000000002
 31
0.0
  0
LINE
  5
13C
330
17
100
AcDbEntity
  8
DEVICES
370
5
100
AcDbLine
 10
277.55600000000004
 20
291.37000000000023
 30
0.0
 11
319.892
 21
291.37000000000023
 31
0.0
  0
TEXT
  5
13D
330
17
100
AcDbEntity
  8
DANTE
100
AcDbText
 10
318.892
 20
285.49040000000025
 30
0.0
 40
1.8
  1
Dante 2
100
AcDbText
  0
LINE
  5
13E
330
17
100
AcDbEntity
  8
DANTE
100
AcDbLine
 10
318.892
 20
287.93020000000024
 30
0.0
 11
320.892
 21
287.93020000000024
 31
0.0
  0
LINE
  5
13F
330
17
100
AcDbEntity
  8
DANTE
100
AcDbLine
 10
319.892
 20
286.93020000000024
 30
0.0
 11
319.892
 21
288.93020000000024
 31
0.0
  0
LINE
  5
140
330
17
100
AcDbEntity
  8
DEVICES
370
5
100
AcDbLine
 10
277.55600000000004
 20
284.49040000000025
 30
0.0
 11
319.892
 21
284.49040000000025
 31
0.0
  0
TEXT
  5
141
330
17
100
AcDbEntity
  8
DANTE
100
AcDbText
 10
318.892
 20
278.61080000000027
 30
0.0
 40
1.8
  1
Dante 3
100
AcDbText
  0
LINE
  5
142
330
17
100
AcDbEntity
  8
DANTE
100
AcDbLine
 10
318.892
 20
281.05060000000026
 30
0.0
 11
320.892
 21
281.05060000000026
 31
0.0
  0
LINE
  5
143
330
17
100
AcDbEntity
  8
DANTE
100
AcDbLine
 10
319.892
 20
280.05060000000026
 30
0.0
 11
319.892
 21
282.05060000000026
 31
0.0
  0
LINE
  5
144
330
17
100
AcDbEntity
  8
DEVICES
370
5
100
AcDbLine
 10
277.55600000000004
 20
277.61080000000027
 30
0.0
 11
319.892
 21
277.61080000000027
 31
0.0
  0
TEXT
  5
145
330
17
100
AcDbEntity
  8
DANTE
100
AcDbText
 10
318.892
 20
271.7312000000003
 30
0.0
 40
1.8
  1
Dante 4
100
AcDbText
  0
LINE
  5
146
330
17
100
AcDbEntity
  8
DANTE
100
AcDbLine
 10
318.892
 20
274.1710000000003
 30
0.0
 11
320.892
 21
274.1710000000003
 31
0.0
  0
LINE
  5
147
330
17
100
AcDbEntity
  8
DANTE
100
AcDbLine
 10
319.892
 20
273.1710000000003
 30
0.0
 11
319.892
 21
275.1710000000003
 31
0.0
  0
TEXT
  5
148
330
17
100
AcDbEntity
  8
NOTES
100
AcDbText
 10
278.55600000000004
 20
271.73120000000006
 30
0.0
 40
1.8
  1
S/N: DANTE-NET-01
100
AcDbText
  0
LWPOLYLINE
  5
149
330
17
100
AcDbEntity
  8
DEVICES
370
35
100
AcDbPolyline
 90
5
 70
0
 10
134.672
 20
596.7184000000001
 10
177.00799999999998
 20
596.7184000000001
 10
177.00799999999998
 20
641.7004000000001
 10
134.672
 20
641.7004000000001
 10
134.672
 20
596.7184000000001
  0
LWPOLYLINE
  5
14A
330
17
100
AcDbEntity
  8
DEVICES
100
AcDbPolyline
 90
2
 70
0
 10
134.672
 20
631.1164000000001
 10
177.00799999999998
 20
631.1164000000001
  0
TEXT
  5
14B
330
17
100
AcDbEntity
  8
DEVICE_TEXT
100
AcDbText
 10
135.672
 20
633.6164000000001
 30
0.0
 40
2.5
  1
Cisco PTZ 4K Camera 1
100
AcDbText
  0
LINE
  5
14C
330
17
100
AcDbEntity
  8
DEVICES
370
5
100
AcDbLine
 10
134.672
 20
631.1164000000001
 30
0.0
 11
177.00799999999998
 21
631.1164000000001
 31
0.0
  0
TEXT
  5
14D
330
17
100
AcDbEntity
  8
ETHERNET
100
AcDbText
 10
135.672
 20
625.2368000000001
 30
0.0
 40
1.8
  1
CTS-CAM-P60-K9
100
AcDbText
  0
LINE
  5
14E
330
17
100
AcDbEntity
  8
ETHERNET
100
AcDbLine
 10
133.672
 20
627.6766000000001
 30
0.0
 11
135.672
 21
627.6766000000001
 31
0.0
  0
LINE
  5
14F
330
17
100
AcDbEntity
  8
ETHERNET
100
AcDbLine
 10
134.672
 20
626.6766000000001
 30
0.0
 11
134.672
 21
628.6766000000001
 31
0.0
  0
LINE
  5
150
330
17
100
AcDbEntity
  8
DEVICES
370
5
100
AcDbLine
 10
134.672
 20
624.2368000000001
 30
0.0
 11
177.00799999999998
 21
624.2368000000001
 31
0.0
  0
TEXT
  5
151
330
17
100
AcDbEntity
  8
ETHERNET
100
AcDbText
 10
135.672
 20
618.3572000000001
 30
0.0
 40
1.8
  1
Ethernet RJ45
100
AcDbText
  0
LINE
  5
152
330
17
100
AcDbEntity
  8
ETHERNET
100
AcDbLine
 10
133.672
 20
620.7970000000001
 30
0.0
 11
135.672
 21
620.7970000000001
 31
0.0
  0
LINE
  5
153
330
17
100
AcDbEntity
  8
ETHERNET
100
AcDbLine
 10
134.672
 20
619.7970000000001
 30
0.0
 11
134.672
 21
621.7970000000001
 31
0.0
  0
LINE
  5
154
330
17
100
AcDbEntity
  8
DEVICES
370
13
100
AcDbLine
 10
134.672
 20
617.3572000000001
 30
0.0
 11
177.00799999999998
 21
617.3572000000001
 31
0.0
  0
TEXT
  5
155
330
17
100
AcDbEntity
  8
DEVICE_TEXT
100
AcDbText
 10
135.672
 20
617.8572000000001
 30
0.0
 40
1.8
  1
OUTPUT
100
AcDbText
  0
LINE
  5
156
330
17
100
AcDbEntity
  8
DEVICES
370
5
100
AcDbLine
 10
134.672
 20
610.4776000000002
 30
0.0
 11
177.00799999999998
 21
610.4776000000002
 31
0.0
  0
TEXT
  5
157
330
17
100
AcDbEntity
  8
HDMI
100
AcDbText
 10
176.00799999999998
 20
604.5980000000002
 30
0.0
 40
1.8
  1
HDMI Out
100
AcDbText
  0
LINE
  5
158
330
17
100
AcDbEntity
  8
HDMI
100
AcDbLine
 10
176.00799999999998
 20
607.0378000000002
 30
0.0
 11
178.00799999999998
 21
607.0378000000002
 31
0.0
  0
LINE
  5
159
330
17
100
AcDbEntity
  8
HDMI
100
AcDbLine
 10
177.00799999999998
 20
606.0378000000002
 30
0.0
 11
177.00799999999998
 21
608.0378000000002
 31
0.0
  0
LINE
  5
15A
330
17
100
AcDbEntity
  8
DEVICES
370
5
100
AcDbLine
 10
134.672
 20
603.5980000000002
 30
0.0
 11
177.00799999999998
 21
603.5980000000002
 31
0.0
  0
TEXT
  5
15B
330
17
100
AcDbEntity
  8
USB
100
AcDbText
 10
176.00799999999998
 20
597.7184000000002
 30
0.0
 40
1.8
  1
USB Out
100
AcDbText
  0
LINE
  5
15C
330
17
100
AcDbEntity
  8
USB
100
AcDbLine
 10
176.00799999999998
 20
600.1582000000002
 30
0.0
 11
178.00799999999998
 21
600.1582000000002
 31
0.0
  0
LINE
  5
15D
330
17
100
AcDbEntity
  8
USB
100
AcDbLine
 10
177.00799999999998
 20
599.1582000000002
 30
0.0
 11
177.00799999999998
 21
601.1582000000002
 31
0.0
  0
TEXT
  5
15E
330
17
100
AcDbEntity
  8
NOTES
100
AcDbText
 10
135.672
 20
597.7184000000001
 30
0.0
 40
1.8
  1
S/N: CAM-P60-01
100
AcDbText
  0
LWPOLYLINE
  5
15F
330
17
100
AcDbEntity
  8
DEVICES
370
35
100
AcDbPolyline
 90
5
 70
0
 10
182.3
 20
270.73120000000006
 10
224.63600000000002
 20
270.73120000000006
 10
224.63600000000002
 20
363.8704000000001
 10
182.3
 20
363.8704000000001
 10
182.3
 20
270.73120000000006
  0
LWPOLYLINE
  5
160
330
17
100
AcDbEntity
  8
DEVICES
100
AcDbPolyline
 90
2
 70
0
 10
182.3
 20
353.28640000000007
 10
224.63600000000002
 20
353.28640000000007
  0
TEXT
  5
161
330
17
100
AcDbEntity
  8
DEVICE_TEXT
100
AcDbText
 10
183.3
 20
355.78640000000007
 30
0.0
 40
2.5
  1
Shure ULXD4Q Wireless Receiv
100
AcDbText
  0
LINE
  5
162
330
17
100
AcDbEntity
  8
DEVICES
370
5
100
AcDbLine
 10
182.3
 20
353.28640000000007
 30
0.0
 11
224.63600000000002
 21
353.28640000000007
 31
0.0
  0
TEXT
  5
163
330
17
100
AcDbEntity
  8
ETHERNET
100
AcDbText
 10
183.3
 20
347.4068000000001
 30
0.0
 40
1.8
  1
ULXD4Q
100
AcDbText
  0
LINE
  5
164
330
17
100
AcDbEntity
  8
ETHERNET
100
AcDbLine
 10
181.3
 20
349.8466000000001
 30
0.0
 11
183.3
 21
349.8466000000001
 31
0.0
  0
LINE
  5
165
330
17
100
AcDbEntity
  8
ETHERNET
100
AcDbLine
 10
182.3
 20
348.8466000000001
 30
0.0
 11
182.3
 21
350.8466000000001
 31
0.0
  0
LINE
  5
166
330
17
100
AcDbEntity
  8
DEVICES
370
5
100
AcDbLine
 10
182.3
 20
346.4068000000001
 30
0.0
 11
224.63600000000002
 21
346.4068000000001
 31
0.0
  0
TEXT
  5
167
330
17
100
AcDbEntity
  8
ETHERNET
100
AcDbText
 10
183.3
 20
340.5272000000001
 30
0.0
 40
1.8
  1
Ethernet RJ45
100
AcDbText
  0
LINE
  5
168
330
17
100
AcDbEntity
  8
ETHERNET
100
AcDbLine
 10
181.3
 20
342.9670000000001
 30
0.0
 11
183.3
 21
342.9670000000001
 31
0.0
  0
LINE
  5
169
330
17
100
AcDbEntity
  8
ETHERNET
100
AcDbLine
 10
182.3
 20
341.9670000000001
 30
0.0
 11
182.3
 21
343.9670000000001
 31
0.0
  0
LINE
  5
16A
330
17
100
AcDbEntity
  8
DEVICES
370
13
100
AcDbLine
 10
182.3
 20
339.5272000000001
 30
0.0
 11
224.63600000000002
 21
339.5272000000001
 31
0.0
  0
TEXT
  5
16B
330
17
100
AcDbEntity
  8
DEVICE_TEXT
100
AcDbText
 10
183.3
 20
340.0272000000001
 30
0.0
 40
1.8
  1
INPUT
100
AcDbText
  0
LINE
  5
16C
330
17
100
AcDbEntity
  8
DEVICES
370
5
100
AcDbLine
 10
182.3
 20
332.6476000000001
 30
0.0
 11
224.63600000000002
 21
332.6476000000001
 31
0.0
  0
TEXT
  5
16D
330
17
100
AcDbEntity
  8
DANTE
100
AcDbText
 10
183.3
 20
326.76800000000014
 30
0.0
 40
1.8
  1
Dante 1
100
AcDbText
  0
LINE
  5
16E
330
17
100
AcDbEntity
  8
DANTE
100
AcDbLine
 10
181.3
 20
329.20780000000013
 30
0.0
 11
183.3
 21
329.20780000000013
 31
0.0
  0
LINE
  5
16F
330
17
100
AcDbEntity
  8
DANTE
100
AcDbLine
 10
182.3
 20
328.20780000000013
 30
0.0
 11
182.3
 21
330.20780000000013
 31
0.0
  0
LINE
  5
170
330
17
100
AcDbEntity
  8
DEVICES
370
5
100
AcDbLine
 10
182.3
 20
325.76800000000014
 30
0.0
 11
224.63600000000002
 21
325.76800000000014
 31
0.0
  0
TEXT
  5
171
330
17
100
AcDbEntity
  8
DANTE
100
AcDbText
 10
183.3
 20
319.88840000000016
 30
0.0
 40
1.8
  1
Dante 2
100
AcDbText
  0
LINE
  5
172
330
17
100
AcDbEntity
  8
DANTE
100
AcDbLine
 10
181.3
 20
322.32820000000015
 30
0.0
 11
183.3
 21
322.32820000000015
 31
0.0
  0
LINE
  5
173
330
17
100
AcDbEntity
  8
DANTE
100
AcDbLine
 10
182.3
 20
321.32820000000015
 30
0.0
 11
182.3
 21
323.32820000000015
 31
0.0
  0
LINE
  5
174
330
17
100
AcDbEntity
  8
DEVICES
370
5
100
AcDbLine
 10
182.3
 20
318.88840000000016
 30
0.0
 11
224.63600000000002
 21
318.88840000000016
 31
0.0
  0
TEXT
  5
175
330
17
100
AcDbEntity
  8
DANTE
100
AcDbText
 10
183.3
 20
313.0088000000002
 30
0.0
 40
1.8
  1
Dante 3
100
AcDbText
  0
LINE
  5
176
330
17
100
AcDbEntity
  8
DANTE
100
AcDbLine
 10
181.3
 20
315.44860000000017
 30
0.0
 11
183.3
 21
315.44860000000017
 31
0.0
  0
LINE
  5
177
330
17
100
AcDbEntity
  8
DANTE
100
AcDbLine
 10
182.3
 20
314.44860000000017
 30
0.0
 11
182.3
 21
316.44860000000017
 31
0.0
  0
LINE
  5
178
330
17
100
AcDbEntity
  8
DEVICES
370
5
100
AcDbLine
 10
182.3
 20
312.0088000000002
 30
0.0
 11
224.63600000000002
 21
312.0088000000002
 31
0.0
  0
TEXT
  5
179
330
17
100
AcDbEntity
  8
DANTE
100
AcDbText
 10
183.3
 20
306.1292000000002
 30
0.0
 40
1.8
  1
Dante 4
100
AcDbText
  0
LINE
  5
17A
330
17
100
AcDbEntity
  8
DANTE
100
AcDbLine
 10
181.3
 20
308.5690000000002
 30
0.0
 11
183.3
 21
308.5690000000002
 31
0.0
  0
LINE
  5
17B
330
17
100
AcDbEntity
  8
DANTE
100
AcDbLine
 10
182.3
 20
307.5690000000002
 30
0.0
 11
182.3
 21
309.5690000000002
 31
0.0
  0
LINE
  5
17C
330
17
100
AcDbEntity
  8
DEVICES
370
13
100
AcDbLine
 10
182.3
 20
305.1292000000002
 30
0.0
 11
224.63600000000002
 21
305.1292000000002
 31
0.0
  0
TEXT
  5
17D
330
17
100
AcDbEntity
  8
DEVICE_TEXT
100
AcDbText
 10
183.3
 20
305.6292000000002
 30
0.0
 40
1.8
  1
OUTPUT
100
AcDbText
  0
LINE
  5
17E
330
17
100
AcDbEntity
  8
DEVICES
370
5
100
AcDbLine
 10
182.3
 20
298.2496000000002
 30
0.0
 11
224.63600000000002
 21
298.2496000000002
 31
0.0
  0
TEXT
  5
17F
330
17
100
AcDbEntity
  8
DANTE
100
AcDbText
 10
223.63600000000002
 20
292.37000000000023
 30
0.0
 40
1.8
  1
Dante 1
100
AcDbText
  0
LINE
  5
180
330
17
100
AcDbEntity
  8
DANTE
100
AcDbLine
 10
223.63600000000002
 20
294.8098000000002
 30
0.0
 11
225.63600000000002
 21
294.8098000000002
 31
0.0
  0
LINE
  5
181
330
17
100
AcDbEntity
  8
DANTE
100
AcDbLine
 10
224.63600000000002
 20
293.8098000000002
 30
0.0
 11
224.63600000000002
 21
295.8098000000002
 31
0.0
  0
LINE
  5
182
330
17
100
AcDbEntity
  8
DEVICES
370
5
100
AcDbLine
 10
182.3
 20
291.37000000000023
 30
0.0
 11
224.63600000000002
 21
291.37000000000023
 31
0.0
  0
TEXT
  5
183
330
17
100
AcDbEntity
  8
DANTE
100
AcDbText
 10
223.63600000000002
 20
285.49040000000025
 30
0.0
 40
1.8
  1
Dante 2
100
AcDbText
  0
LINE
  5
184
330
17
100
AcDbEntity
  8
DANTE
100
AcDbLine
 10
223.63600000000002
 20
287.93020000000024
 30
0.0
 11
225.63600000000002
 21
287.93020000000024
 31
0.0
  0
LINE
  5
185
330
17
100
AcDbEntity
  8
DANTE
100
AcDbLine
 10
224.63600000000002
 20
286.93020000000024
 30
0.0
 11
224.63600000000002
 21
288.93020000000024
 31
0.0
  0
LINE
  5
186
330
17
100
AcDbEntity
  8
DEVICES
370
5
100
AcDbLine
 10
182.3
 20
284.49040000000025
 30
0.0
 11
224.63600000000002
 21
284.49040000000025
 31
0.0
  0
TEXT
  5
187
330
17
100
AcDbEntity
  8
DANTE
100
AcDbText
 10
223.63600000000002
 20
278.61080000000027
 30
0.0
 40
1.8
  1
Dante 3
100
AcDbText
  0
LINE
  5
188
330
17
100
AcDbEntity
  8
DANTE
100
AcDbLine
 10
223.63600000000002
 20
281.05060000000026
 30
0.0
 11
225.63600000000002
 21
281.05060000000026
 31
0.0
  0
LINE
  5
189
330
17
100
AcDbEntity
  8
DANTE
100
AcDbLine
 10
224.63600000000002
 20
280.05060000000026
 30
0.0
 11
224.63600000000002
 21
282.05060000000026
 31
0.0
  0
LINE
  5
18A
330
17
100
AcDbEntity
  8
DEVICES
370
5
100
AcDbLine
 10
182.3
 20
277.61080000000027
 30
0.0
 11
224.63600000000002
 21
277.61080000000027
 31
0.0
  0
TEXT
  5
18B
330
17
100
AcDbEntity
  8
DANTE
100
AcDbText
 10
223.63600000000002
 20
271.7312000000003
 30
0.0
 40
1.8
  1
Dante 4
100
AcDbText
  0
LINE
  5
18C
330
17
100
AcDbEntity
  8
DANTE
100
AcDbLine
 10
223.63600000000002
 20
274.1710000000003
 30
0.0
 11
225.63600000000002
 21
274.1710000000003
 31
0.0
  0
LINE
  5
18D
330
17
100
AcDbEntity
  8
DANTE
100
AcDbLine
 10
224.63600000000002
 20
273.1710000000003
 30
0.0
 11
224.63600000000002
 21
275.1710000000003
 31
0.0
  0
TEXT
  5
18E
330
17
100
AcDbEntity
  8
NOTES
100
AcDbText
 10
183.3
 20
271.73120000000006
 30
0.0
 40
1.8
  1
S/N: ULXD4Q-01
100
AcDbText
  0
LWPOLYLINE
  5
18F
330
17
100
AcDbEntity
  8
DEVICES
370
35
100
AcDbPolyline
 90
5
 70
0
 10
526.28
 20
40.0
 10
568.616
 20
40.0
 10
568.616
 20
71.2228
 10
526.28
 20
71.2228
 10
526.28
 20
40.0
  0
LWPOLYLINE
  5
190
330
17
100
AcDbEntity
  8
DEVICES
100
AcDbPolyline
 90
2
 70
0
 10
526.28
 20
60.6388
 10
568.616
 20
60.6388
  0
TEXT
  5
191
330
17
100
AcDbEntity
  8
DEVICE_TEXT
100
AcDbText
 10
527.28
 20
63.1388
 30
0.0
 40
2.5
  1
Speaker Zone 6
100
AcDbText
  0
LINE
  5
192
330
17
100
AcDbEntity
  8
DEVICES
370
5
100
AcDbLine
 10
526.28
 20
60.6388
 30
0.0
 11
568.616
 21
60.6388
 31
0.0
  0
TEXT
  5
193
330
17
100
AcDbEntity
  8
SPEAKER_LEVEL
100
AcDbText
 10
527.28
 20
54.75920000000001
 30
0.0
 40
1.8
  1
Ceiling Speaker
100
AcDbText
  0
LINE
  5
194
330
17
100
AcDbEntity
  8
SPEAKER_LEVEL
100
AcDbLine
 10
525.28
 20
57.199000000000005
 30
0.0
 11
527.28
 21
57.199000000000005
 31
0.0
  0
LINE
  5
195
330
17
100
AcDbEntity
  8
SPEAKER_LEVEL
100
AcDbLine
 10
526.28
 20
56.199000000000005
 30
0.0
 11
526.28
 21
58.199000000000005
 31
0.0
  0
LINE
  5
196
330
17
100
AcDbEntity
  8
DEVICES
370
13
100
AcDbLine
 10
526.28
 20
53.75920000000001
 30
0.0
 11
568.616
 21
53.75920000000001
 31
0.0
  0
TEXT
  5
197
330
17
100
AcDbEntity
  8
DEVICE_TEXT
100
AcDbText
 10
527.28
 20
54.25920000000001
 30
0.0
 40
1.8
  1
INPUT
100
AcDbText
  0
LINE
  5
198
330
17
100
AcDbEntity
  8
DEVICES
370
5
100
AcDbLine
 10
526.28
 20
46.87960000000001
 30
0.0
 11
568.616
 21
46.87960000000001
 31
0.0
  0
TEXT
  5
199
330
17
100
AcDbEntity
  8
SPEAKER_LEVEL
100
AcDbText
 10
527.28
 20
41.000000000000014
 30
0.0
 40
1.8
  1
Speaker In
100
AcDbText
  0
LINE
  5
19A
330
17
100
AcDbEntity
  8
SPEAKER_LEVEL
100
AcDbLine
 10
525.28
 20
43.43980000000001
 30
0.0
 11
527.28
 21
43.43980000000001
 31
0.0
  0
LINE
  5
19B
330
17
100
AcDbEntity
  8
SPEAKER_LEVEL
100
AcDbLine
 10
526.28
 20
42.43980000000001
 30
0.0
 11
526.28
 21
44.43980000000001
 31
0.0
  0
TEXT
  5
19C
330
17
100
AcDbEntity
  8
NOTES
100
AcDbText
 10
527.28
 20
41.0
 30
0.0
 40
1.8
  1
S/N: QSC-AMP8-Z06
100
AcDbText
  0
LWPOLYLINE
  5
19D
330
17
100
AcDbEntity
  8
DEVICES
370
35
100
AcDbPolyline
 90
5
 70
0
 10
335.768
 20
40.0
 10
378.104
 20
40.0
 10
378.104
 20
71.2228
 10
335.768
 20
71.2228
 10
335.768
 20
40.0
  0
LWPOLYLINE
  5
19E
330
17
100
AcDbEntity
  8
DEVICES
100
AcDbPolyline
 90
2
 70
0
 10
335.768
 20
60.6388
 10
378.104
 20
60.6388
  0
TEXT
  5
19F
330
17
100
AcDbEntity
  8
DEVICE_TEXT
100
AcDbText
 10
336.768
 20
63.1388
 30
0.0
 40
2.5
  1
Speaker Zone 4
100
AcDbText
  0
LINE
  5
1A0
330
17
100
AcDbEntity
  8
DEVICES
370
5
100
AcDbLine
 10
335.768
 20
60.6388
 30
0.0
 11
378.104
 21
60.6388
 31
0.0
  0
TEXT
  5
1A1
330
17
100
AcDbEntity
  8
SPEAKER_LEVEL
100
AcDbText
 10
336.768
 20
54.75920000000001
 30
0.0
 40
1.8
  1
Ceiling Speaker
100
AcDbText
  0
LINE
  5
1A2
330
17
100
AcDbEntity
  8
SPEAKER_LEVEL
100
AcDbLine
 10
334.768
 20
57.199000000000005
 30
0.0
 11
336.768
 21
57.199000000000005
 31
0.0
  0
LINE
  5
1A3
330
17
100
AcDbEntity
  8
SPEAKER_LEVEL
100
AcDbLine
 10
335.768
 20
56.199000000000005
 30
0.0
 11
335.768
 21
58.199000000000005
 31
0.0
  0
LINE
  5
1A4
330
17
100
AcDbEntity
  8
DEVICES
370
13
100
AcDbLine
 10
335.768
 20
53.75920000000001
 30
0.0
 11
378.104
 21
53.75920000000001
 31
0.0
  0
TEXT
  5
1A5
330
17
100
AcDbEntity
  8
DEVICE_TEXT
100
AcDbText
 10
336.768
 20
54.25920000000001
 30
0.0
 40
1.8
  1
INPUT
100
AcDbText
  0
LINE
  5
1A6
330
17
100
AcDbEntity
  8
DEVICES
370
5
100
AcDbLine
 10
335.768
 20
46.87960000000001
 30
0.0
 11
378.104
 21
46.87960000000001
 31
0.0
  0
TEXT
  5
1A7
330
17
100
AcDbEntity
  8
SPEAKER_LEVEL
100
AcDbText
 10
336.768
 20
41.000000000000014
 30
0.0
 40
1.8
  1
Speaker In
100
AcDbText
  0
LINE
  5
1A8
330
17
100
AcDbEntity
  8
SPEAKER_LEVEL
100
AcDbLine
 10
334.768
 20
43.43980000000001
 30
0.0
 11
336.768
 21
43.43980000000001
 31
0.0
  0
LINE
  5
1A9
330
17
100
AcDbEntity
  8
SPEAKER_LEVEL
100
AcDbLine
 10
335.768
 20
42.43980000000001
 30
0.0
 11
335.768
 21
44.43980000000001
 31
0.0
  0
TEXT
  5
1AA
330
17
100
AcDbEntity
  8
NOTES
100
AcDbText
 10
336.768
 20
41.0
 30
0.0
 40
1.8
  1
S/N: QSC-AMP8-Z04
100
AcDbText
  0
LWPOLYLINE
  5
1AB
330
17
100
AcDbEntity
  8
DEVICES
370
35
100
AcDbPolyline
 90
5
 70
0
 10
716.792
 20
40.0
 10
759.128
 20
40.0
 10
759.128
 20
71.2228
 10
716.792
 20
71.2228
 10
716.792
 20
40.0
  0
LWPOLYLINE
  5
1AC
330
17
100
AcDbEntity
  8
DEVICES
100
AcDbPolyline
 90
2
 70
0
 10
716.792
 20
60.6388
 10
759.128
 20
60.6388
  0
TEXT
  5
1AD
330
17
100
AcDbEntity
  8
DEVICE_TEXT
100
AcDbText
 10
717.792
 20
63.1388
 30
0.0
 40
2.5
  1
Speaker Zone 8
100
AcDbText
  0
LINE
  5
1AE
330
17
100
AcDbEntity
  8
DEVICES
370
5
100
AcDbLine
 10
716.792
 20
60.6388
 30
0.0
 11
759.128
 21
60.6388
 31
0.0
  0
TEXT
  5
1AF
330
17
100
AcDbEntity
  8
SPEAKER_LEVEL
100
AcDbText
 10
717.792
 20
54.75920000000001
 30
0.0
 40
1.8
  1
Ceiling Speaker
100
AcDbText
  0
LINE
  5
1B0
330
17
100
AcDbEntity
  8
SPEAKER_LEVEL
100
AcDbLine
 10
715.792
 20
57.199000000000005
 30
0.0
 11
717.792
 21
57.199000000000005
 31
0.0
  0
LINE
  5
1B1
330
17
100
AcDbEntity
  8
SPEAKER_LEVEL
100
AcDbLine
 10
716.792
 20
56.199000000000005
 30
0.0
 11
716.792
 21
58.199000000000005
 31
0.0
  0
LINE
  5
1B2
330
17
100
AcDbEntity
  8
DEVICES
370
13
100
AcDbLine
 10
716.792
 20
53.75920000000001
 30
0.0
 11
759.128
 21
53.75920000000001
 31
0.0
  0
TEXT
  5
1B3
330
17
100
AcDbEntity
  8
DEVICE_TEXT
100
AcDbText
 10
717.792
 20
54.25920000000001
 30
0.0
 40
1.8
  1
INPUT
100
AcDbText
  0
LINE
  5
1B4
330
17
100
AcDbEntity
  8
DEVICES
370
5
100
AcDbLine
 10
716.792
 20
46.87960000000001
 30
0.0
 11
759.128
 21
46.87960000000001
 31
0.0
  0
TEXT
  5
1B5
330
17
100
AcDbEntity
  8
SPEAKER_LEVEL
100
AcDbText
 10
717.792
 20
41.000000000000014
 30
0.0
 40
1.8
  1
Speaker In
100
AcDbText
  0
LINE
  5
1B6
330
17
100
AcDbEntity
  8
SPEAKER_LEVEL
100
AcDbLine
 10
715.792
 20
43.43980000000001
 30
0.0
 11
717.792
 21
43.43980000000001
 31
0.0
  0
LINE
  5
1B7
330
17
100
AcDbEntity
  8
SPEAKER_LEVEL
100
AcDbLine
 10
716.792
 20
42.43980000000001
 30
0.0
 11
716.792
 21
44.43980000000001
 31
0.0
  0
TEXT
  5
1B8
330
17
100
AcDbEntity
  8
NOTES
100
AcDbText
 10
717.792
 20
41.0
 30
0.0
 40
1.8
  1
S/N: QSC-AMP8-Z08
100
AcDbText
  0
LWPOLYLINE
  5
1B9
330
17
100
AcDbEntity
  8
DEVICES
370
35
100
AcDbPolyline
 90
5
 70
0
 10
50.0
 20
542.74
 10
92.336
 20
542.74
 10
92.336
 20
580.8424000000001
 10
50.0
 20
580.8424000000001
 10
50.0
 20
542.74
  0
LWPOLYLINE
  5
1BA
330
17
100
AcDbEntity
  8
DEVICES
100
AcDbPolyline
 90
2
 70
0
 10
50.0
 20
570.2584000000002
 10
92.336
 20
570.2584000000002
  0
TEXT
  5
1BB
330
17
100
AcDbEntity
  8
DEVICE_TEXT
100
AcDbText
 10
51.0
 20
572.7584000000002
 30
0.0
 40
2.5
  1
Cisco Ceiling Mic Mic 1
100
AcDbText
  0
LINE
  5
1BC
330
17
100
AcDbEntity
  8
DEVICES
370
5
100
AcDbLine
 10
50.0
 20
570.2584000000002
 30
0.0
 11
92.336
 21
570.2584000000002
 31
0.0
  0
TEXT
  5
1BD
330
17
100
AcDbEntity
  8
ETHERNET
100
AcDbText
 10
51.0
 20
564.3788000000002
 30
0.0
 40
1.8
  1
CS-MIC-CLNG-T
100
AcDbText
  0
LINE
  5
1BE
330
17
100
AcDbEntity
  8
ETHERNET
100
AcDbLine
 10
49.0
 20
566.8186000000002
 30
0.0
 11
51.0
 21
566.8186000000002
 31
0.0
  0
LINE
  5
1BF
330
17
100
AcDbEntity
  8
ETHERNET
100
AcDbLine
 10
50.0
 20
565.8186000000002
 30
0.0
 11
50.0
 21
567.8186000000002
 31
0.0
  0
LINE
  5
1C0
330
17
100
AcDbEntity
  8
DEVICES
370
5
100
AcDbLine
 10
50.0
 20
563.3788000000002
 30
0.0
 11
92.336
 21
563.3788000000002
 31
0.0
  0
TEXT
  5
1C1
330
17
100
AcDbEntity
  8
ETHERNET
100
AcDbText
 10
51.0
 20
557.4992000000002
 30
0.0
 40
1.8
  1
Ethernet RJ45
100
AcDbText
  0
LINE
  5
1C2
330
17
100
AcDbEntity
  8
ETHERNET
100
AcDbLine
 10
49.0
 20
559.9390000000002
 30
0.0
 11
51.0
 21
559.9390000000002
 31
0.0
  0
LINE
  5
1C3
330
17
100
AcDbEntity
  8
ETHERNET
100
AcDbLine
 10
50.0
 20
558.9390000000002
 30
0.0
 11
50.0
 21
560.9390000000002
 31
0.0
  0
LINE
  5
1C4
330
17
100
AcDbEntity
  8
DEVICES
370
13
100
AcDbLine
 10
50.0
 20
556.4992000000002
 30
0.0
 11
92.336
 21
556.4992000000002
 31
0.0
  0
TEXT
  5
1C5
330
17
100
AcDbEntity
  8
DEVICE_TEXT
100
AcDbText
 10
51.0
 20
556.9992000000002
 30
0.0
 40
1.8
  1
OUTPUT
100
AcDbText
  0
LINE
  5
1C6
330
17
100
AcDbEntity
  8
DEVICES
370
5
100
AcDbLine
 10
50.0
 20
549.6196000000002
 30
0.0
 11
92.336
 21
549.6196000000002
 31
0.0
  0
TEXT
  5
1C7
330
17
100
AcDbEntity
  8
USB
100
AcDbText
 10
91.336
 20
543.7400000000002
 30
0.0
 40
1.8
  1
USB Out
100
AcDbText
  0
LINE
  5
1C8
330
17
100
AcDbEntity
  8
USB
100
AcDbLine
 10
91.336
 20
546.1798000000002
 30
0.0
 11
93.336
 21
546.1798000000002
 31
0.0
  0
LINE
  5
1C9
330
17
100
AcDbEntity
  8
USB
100
AcDbLine
 10
92.336
 20
545.1798000000002
 30
0.0
 11
92.336
 21
547.1798000000002
 31
0.0
  0
TEXT
  5
1CA
330
17
100
AcDbEntity
  8
NOTES
100
AcDbText
 10
51.0
 20
543.74
 30
0.0
 40
1.8
  1
S/N: CLNG-MIC-01
100
AcDbText
  0
LWPOLYLINE
  5
1CB
330
17
100
AcDbEntity
  8
DEVICES
370
35
100
AcDbPolyline
 90
5
 70
0
 10
229.928
 20
419.96560000000005
 10
272.264
 20
419.96560000000005
 10
272.264
 20
526.864
 10
229.928
 20
526.864
 10
229.928
 20
419.96560000000005
  0
LWPOLYLINE
  5
1CC
330
17
100
AcDbEntity
  8
DEVICES
100
AcDbPolyline
 90
2
 70
0
 10
229.928
 20
516.2800000000001
 10
272.264
 20
516.2800000000001
  0
TEXT
  5
1CD
330
17
100
AcDbEntity
  8
DEVICE_TEXT
100
AcDbText
 10
230.928
 20
518.7800000000001
 30
0.0
 40
2.5
  1
Cisco Webex Codec Pro
100
AcDbText
  0
LINE
  5
1CE
330
17
100
AcDbEntity
  8
DEVICES
370
5
100
AcDbLine
 10
229.928
 20
516.2800000000001
 30
0.0
 11
272.264
 21
516.2800000000001
 31
0.0
  0
TEXT
  5
1CF
330
17
100
AcDbEntity
  8
ETHERNET
100
AcDbText
 10
230.928
 20
510.4004000000001
 30
0.0
 40
1.8
  1
CS-CODEC-PRO
100
AcDbText
  0
LINE
  5
1D0
330
17
100
AcDbEntity
  8
ETHERNET
100
AcDbLine
 10
228.928
 20
512.8402000000001
 30
0.0
 11
230.928
 21
512.8402000000001
 31
0.0
  0
LINE
  5
1D1
330
17
100
AcDbEntity
  8
ETHERNET
100
AcDbLine
 10
229.928
 20
511.8402000000001
 30
0.0
 11
229.928
 21
513.8402000000001
 31
0.0
  0
LINE
  5
1D2
330
17
100
AcDbEntity
  8
DEVICES
370
5
100
AcDbLine
 10
229.928
 20
509.4004000000001
 30
0.0
 11
272.264
 21
509.4004000000001
 31
0.0
  0
TEXT
  5
1D3
330
17
100
AcDbEntity
  8
ETHERNET
100
AcDbText
 10
230.928
 20
503.5208000000001
 30
0.0
 40
1.8
  1
Ethernet RJ45
100
AcDbText
  0
LINE
  5
1D4
330
17
100
AcDbEntity
  8
ETHERNET
100
AcDbLine
 10
228.928
 20
505.9606000000001
 30
0.0
 11
230.928
 21
505.9606000000001
 31
0.0
  0
LINE
  5
1D5
330
17
100
AcDbEntity
  8
ETHERNET
100
AcDbLine
 10
229.928
 20
504.9606000000001
 30
0.0
 11
229.928
 21
506.9606000000001
 31
0.0
  0
LINE
  5
1D6
330
17
100
AcDbEntity
  8
DEVICES
370
13
100
AcDbLine
 10
229.928
 20
502.5208000000001
 30
0.0
 11
272.264
 21
502.5208000000001
 31
0.0
  0
TEXT
  5
1D7
330
17
100
AcDbEntity
  8
DEVICE_TEXT
100
AcDbText
 10
230.928
 20
503.0208000000001
 30
0.0
 40
1.8
  1
INPUT
100
AcDbText
  0
LINE
  5
1D8
330
17
100
AcDbEntity
  8
DEVICES
370
5
100
AcDbLine
 10
229.928
 20
495.64120000000014
 30
0.0
 11
272.264
 21
495.64120000000014
 31
0.0
  0
TEXT
  5
1D9
330
17
100
AcDbEntity
  8
HDMI
100
AcDbText
 10
230.928
 20
489.76160000000016
 30
0.0
 40
1.8
  1
HDMI In 1
100
AcDbText
  0
LINE
  5
1DA
330
17
100
AcDbEntity
  8
HDMI
100
AcDbLine
 10
228.928
 20
492.20140000000015
 30
0.0
 11
230.928
 21
492.20140000000015
 31
0.0
  0
LINE
  5
1DB
330
17
100
AcDbEntity
  8
HDMI
100
AcDbLine
 10
229.928
 20
491.20140000000015
 30
0.0
 11
229.928
 21
493.20140000000015
 31
0.0
  0
LINE
  5
1DC
330
17
100
AcDbEntity
  8
DEVICES
370
5
100
AcDbLine
 10
229.928
 20
488.76160000000016
 30
0.0
 11
272.264
 21
488.76160000000016
 31
0.0
  0
TEXT
  5
1DD
330
17
100
AcDbEntity
  8
HDMI
100
AcDbText
 10
230.928
 20
482.8820000000002
 30
0.0
 40
1.8
  1
HDMI In 2
100
AcDbText
  0
LINE
  5
1DE
330
17
100
AcDbEntity
  8
HDMI
100
AcDbLine
 10
228.928
 20
485.32180000000017
 30
0.0
 11
230.928
 21
485.32180000000017
 31
0.0
  0
LINE
  5
1DF
330
17
100
AcDbEntity
  8
HDMI
100
AcDbLine
 10
229.928
 20
484.32180000000017
 30
0.0
 11
229.928
 21
486.32180000000017
 31
0.0
  0
LINE
  5
1E0
330
17
100
AcDbEntity
  8
DEVICES
370
5
100
AcDbLine
 10
229.928
 20
481.8820000000002
 30
0.0
 11
272.264
 21
481.8820000000002
 31
0.0
  0
TEXT
  5
1E1
330
17
100
AcDbEntity
  8
HDMI
100
AcDbText
 10
230.928
 20
476.0024000000002
 30
0.0
 40
1.8
  1
HDMI In 3
100
AcDbText
  0
LINE
  5
1E2
330
17
100
AcDbEntity
  8
HDMI
100
AcDbLine
 10
228.928
 20
478.4422000000002
 30
0.0
 11
230.928
 21
478.4422000000002
 31
0.0
  0
LINE
  5
1E3
330
17
100
AcDbEntity
  8
HDMI
100
AcDbLine
 10
229.928
 20
477.4422000000002
 30
0.0
 11
229.928
 21
479.4422000000002
 31
0.0
  0
LINE
  5
1E4
330
17
100
AcDbEntity
  8
DEVICES
370
5
100
AcDbLine
 10
229.928
 20
475.0024000000002
 30
0.0
 11
272.264
 21
475.0024000000002
 31
0.0
  0
TEXT
  5
1E5
330
17
100
AcDbEntity
  8
HDMI
100
AcDbText
 10
230.928
 20
469.1228000000002
 30
0.0
 40
1.8
  1
HDMI In 4
100
AcDbText
  0
LINE
  5
1E6
330
17
100
AcDbEntity
  8
HDMI
100
AcDbLine
 10
228.928
 20
471.5626000000002
 30
0.0
 11
230.928
 21
471.5626000000002
 31
0.0
  0
LINE
  5
1E7
330
17
100
AcDbEntity
  8
HDMI
100
AcDbLine
 10
229.928
 20
470.5626000000002
 30
0.0
 11
229.928
 21
472.5626000000002
 31
0.0
  0
LINE
  5
1E8
330
17
100
AcDbEntity
  8
DEVICES
370
5
100
AcDbLine
 10
229.928
 20
468.1228000000002
 30
0.0
 11
272.264
 21
468.1228000000002
 31
0.0
  0
TEXT
  5
1E9
330
17
100
AcDbEntity
  8
USB
100
AcDbText
 10
230.928
 20
462.24320000000023
 30
0.0
 40
1.8
  1
USB In 1
100
AcDbText
  0
LINE
  5
1EA
330
17
100
AcDbEntity
  8
USB
100
AcDbLine
 10
228.928
 20
464.6830000000002
 30
0.0
 11
230.928
 21
464.6830000000002
 31
0.0
  0
LINE
  5
1EB
330
17
100
AcDbEntity
  8
USB
100
AcDbLine
 10
229.928
 20
463.6830000000002
 30
0.0
 11
229.928
 21
465.6830000000002
 31
0.0
  0
LINE
  5
1EC
330
17
100
AcDbEntity
  8
DEVICES
370
5
100
AcDbLine
 10
229.928
 20
461.24320000000023
 30
0.0
 11
272.264
 21
461.24320000000023
 31
0.0
  0
TEXT
  5
1ED
330
17
100
AcDbEntity
  8
USB
100
AcDbText
 10
230.928
 20
455.36360000000025
 30
0.0
 40
1.8
  1
USB In 2
100
AcDbText
  0
LINE
  5
1EE
330
17
100
AcDbEntity
  8
USB
100
AcDbLine
 10
228.928
 20
457.80340000000024
 30
0.0
 11
230.928
 21
457.80340000000024
 31
0.0
  0
LINE
  5
1EF
330
17
100
AcDbEntity
  8
USB
100
AcDbLine
 10
229.928
 20
456.80340000000024
 30
0.0
 11
229.928
 21
458.80340000000024
 31
0.0
  0
LINE
  5
1F0
330
17
100
AcDbEntity
  8
DEVICES
370
13
100
AcDbLine
 10
229.928
 20
454.36360000000025
 30
0.0
 11
272.264
 21
454.36360000000025
 31
0.0
  0
TEXT
  5
1F1
330
17
100
AcDbEntity
  8
DEVICE_TEXT
100
AcDbText
 10
230.928
 20
454.86360000000025
 30
0.0
 40
1.8
  1
OUTPUT
100
AcDbText
  0
LINE
  5
1F2
330
17
100
AcDbEntity
  8
DEVICES
370
5
100
AcDbLine
 10
229.928
 20
447.48400000000026
 30
0.0
 11
272.264
 21
447.48400000000026
 31
0.0
  0
TEXT
  5
1F3
330
17
100
AcDbEntity
  8
HDMI
100
AcDbText
 10
271.264
 20
441.6044000000003
 30
0.0
 40
1.8
  1
HDMI Out 1
100
AcDbText
  0
LINE
  5
1F4
330
17
100
AcDbEntity
  8
HDMI
100
AcDbLine
 10
271.264
 20
444.0442000000003
 30
0.0
 11
273.264
 21
444.0442000000003
 31
0.0
  0
LINE
  5
1F5
330
17
100
AcDbEntity
  8
HDMI
100
AcDbLine
 10
272.264
 20
443.0442000000003
 30
0.0
 11
272.264
 21
445.0442000000003
 31
0.0
  0
LINE
  5
1F6
330
17
100
AcDbEntity
  8
DEVICES
370
5
100
AcDbLine
 10
229.928
 20
440.6044000000003
 30
0.0
 11
272.264
 21
440.6044000000003
 31
0.0
  0
TEXT
  5
1F7
330
17
100
AcDbEntity
  8
HDMI
100
AcDbText
 10
271.264
 20
434.7248000000003
 30
0.0
 40
1.8
  1
HDMI Out 2
100
AcDbText
  0
LINE
  5
1F8
330
17
100
AcDbEntity
  8
HDMI
100
AcDbLine
 10
271.264
 20
437.1646000000003
 30
0.0
 11
273.264
 21
437.1646000000003
 31
0.0
  0
LINE
  5
1F9
330
17
100
AcDbEntity
  8
HDMI
100
AcDbLine
 10
272.264
 20
436.1646000000003
 30
0.0
 11
272.264
 21
438.1646000000003
 31
0.0
  0
LINE
  5
1FA
330
17
100
AcDbEntity
  8
DEVICES
370
5
100
AcDbLine
 10
229.928
 20
433.7248000000003
 30
0.0
 11
272.264
 21
433.7248000000003
 31
0.0
  0
TEXT
  5
1FB
330
17
100
AcDbEntity
  8
USB
100
AcDbText
 10
271.264
 20
427.8452000000003
 30
0.0
 40
1.8
  1
USB Out 1
100
AcDbText
  0
LINE
  5
1FC
330
17
100
AcDbEntity
  8
USB
100
AcDbLine
 10
271.264
 20
430.2850000000003
 30
0.0
 11
273.264
 21
430.2850000000003
 31
0.0
  0
LINE
  5
1FD
330
17
100
AcDbEntity
  8
USB
100
AcDbLine
 10
272.264
 20
429.2850000000003
 30
0.0
 11
272.264
 21
431.2850000000003
 31
0.0
  0
LINE
  5
1FE
330
17
100
AcDbEntity
  8
DEVICES
370
5
100
AcDbLine
 10
229.928
 20
426.8452000000003
 30
0.0
 11
272.264
 21
426.8452000000003
 31
0.0
  0
TEXT
  5
1FF
330
17
100
AcDbEntity
  8
USB
100
AcDbText
 10
271.264
 20
420.96560000000034
 30
0.0
 40
1.8
  1
USB Out 2
100
AcDbText
  0
LINE
  5
200
330
17
100
AcDbEntity
  8
USB
100
AcDbLine
 10
271.264
 20
423.4054000000003
 30
0.0
 11
273.264
 21
423.4054000000003
 31
0.0
  0
LINE
  5
201
330
17
100
AcDbEntity
  8
USB
100
AcDbLine
 10
272.264
 20
422.4054000000003
 30
0.0
 11
272.264
 21
424.4054000000003
 31
0.0
  0
TEXT
  5
202
330
17
100
AcDbEntity
  8
NOTES
100
AcDbText
 10
230.928
 20
420.96560000000005
 30
0.0
 40
1.8
  1
S/N: FTT2650XXXX
100
AcDbText
  0
LWPOLYLINE
  5
203
330
17
100
AcDbEntity
  8
DEVICES
370
35
100
AcDbPolyline
 90
5
 70
0
 10
335.768
 20
542.74
 10
378.104
 20
542.74
 10
378.104
 20
580.8424000000001
 10
335.768
 20
580.8424000000001
 10
335.768
 20
542.74
  0
LWPOLYLINE
  5
204
330
17
100
AcDbEntity
  8
DEVICES
100
AcDbPolyline
 90
2
 70
0
 10
335.768
 20
570.2584000000002
 10
378.104
 20
570.2584000000002
  0
TEXT
  5
205
330
17
100
AcDbEntity
  8
DEVICE_TEXT
100
AcDbText
 10
336.768
 20
572.7584000000002
 30
0.0
 40
2.5
  1
Shure ULXD2 Wireless Mic 2
100
AcDbText
  0
LINE
  5
206
330
17
100
AcDbEntity
  8
DEVICES
370
5
100
AcDbLine
 10
335.768
 20
570.2584000000002
 30
0.0
 11
378.104
 21
570.2584000000002
 31
0.0
  0
TEXT
  5
207
330
17
100
AcDbEntity
  8
ETHERNET
100
AcDbText
 10
336.768
 20
564.3788000000002
 30
0.0
 40
1.8
  1
ULXD2/B58
100
AcDbText
  0
LINE
  5
208
330
17
100
AcDbEntity
  8
ETHERNET
100
AcDbLine
 10
334.768
 20
566.8186000000002
 30
0.0
 11
336.768
 21
566.8186000000002
 31
0.0
  0
LINE
  5
209
330
17
100
AcDbEntity
  8
ETHERNET
100
AcDbLine
 10
335.768
 20
565.8186000000002
 30
0.0
 11
335.768
 21
567.8186000000002
 31
0.0
  0
LINE
  5
20A
330
17
100
AcDbEntity
  8
DEVICES
370
5
100
AcDbLine
 10
335.768
 20
563.3788000000002
 30
0.0
 11
378.104
 21
563.3788000000002
 31
0.0
  0
TEXT
  5
20B
330
17
100
AcDbEntity
  8
ETHERNET
100
AcDbText
 10
336.768
 20
557.4992000000002
 30
0.0
 40
1.8
  1
Ethernet RJ45
100
AcDbText
  0
LINE
  5
20C
330
17
100
AcDbEntity
  8
ETHERNET
100
AcDbLine
 10
334.768
 20
559.9390000000002
 30
0.0
 11
336.768
 21
559.9390000000002
 31
0.0
  0
LINE
  5
20D
330
17
100
AcDbEntity
  8
ETHERNET
100
AcDbLine
 10
335.768
 20
558.9390000000002
 30
0.0
 11
335.768
 21
560.9390000000002
 31
0.0
  0
LINE
  5
20E
330
17
100
AcDbEntity
  8
DEVICES
370
13
100
AcDbLine
 10
335.768
 20
556.4992000000002
 30
0.0
 11
378.104
 21
556.4992000000002
 31
0.0
  0
TEXT
  5
20F
330
17
100
AcDbEntity
  8
DEVICE_TEXT
100
AcDbText
 10
336.768
 20
556.9992000000002
 30
0.0
 40
1.8
  1
OUTPUT
100
AcDbText
  0
LINE
  5
210
330
17
100
AcDbEntity
  8
DEVICES
370
5
100
AcDbLine
 10
335.768
 20
549.6196000000002
 30
0.0
 11
378.104
 21
549.6196000000002
 31
0.0
  0
TEXT
  5
211
330
17
100
AcDbEntity
  8
USB
100
AcDbText
 10
377.104
 20
543.7400000000002
 30
0.0
 40
1.8
  1
USB Out
100
AcDbText
  0
LINE
  5
212
330
17
100
AcDbEntity
  8
USB
100
AcDbLine
 10
377.104
 20
546.1798000000002
 30
0.0
 11
379.104
 21
546.1798000000002
 31
0.0
  0
LINE
  5
213
330
17
100
AcDbEntity
  8
USB
100
AcDbLine
 10
378.104
 20
545.1798000000002
 30
0.0
 11
378.104
 21
547.1798000000002
 31
0.0
  0
TEXT
  5
214
330
17
100
AcDbEntity
  8
NOTES
100
AcDbText
 10
336.768
 20
543.74
 30
0.0
 40
1.8
  1
S/N: ULXD2-B58-02
100
AcDbText
  0
LWPOLYLINE
  5
215
330
17
100
AcDbEntity
  8
DEVICES
370
35
100
AcDbPolyline
 90
5
 70
0
 10
145.256
 20
542.74
 10
187.59199999999998
 20
542.74
 10
187.59199999999998
 20
580.8424000000001
 10
145.256
 20
580.8424000000001
 10
145.256
 20
542.74
  0
LWPOLYLINE
  5
216
330
17
100
AcDbEntity
  8
DEVICES
100
AcDbPolyline
 90
2
 70
0
 10
145.256
 20
570.2584000000002
 10
187.59199999999998
 20
570.2584000000002
  0
TEXT
  5
217
330
17
100
AcDbEntity
  8
DEVICE_TEXT
100
AcDbText
 10
146.256
 20
572.7584000000002
 30
0.0
 40
2.5
  1
Cisco Ceiling Mic Mic 2
100
AcDbText
  0
LINE
  5
218
330
17
100
AcDbEntity
  8
DEVICES
370
5
100
AcDbLine
 10
145.256
 20
570.2584000000002
 30
0.0
 11
187.59199999999998
 21
570.2584000000002
 31
0.0
  0
TEXT
  5
219
330
17
100
AcDbEntity
  8
ETHERNET
100
AcDbText
 10
146.256
 20
564.3788000000002
 30
0.0
 40
1.8
  1
CS-MIC-CLNG-T
100
AcDbText
  0
LINE
  5
21A
330
17
100
AcDbEntity
  8
ETHERNET
100
AcDbLine
 10
144.256
 20
566.8186000000002
 30
0.0
 11
146.256
 21
566.8186000000002
 31
0.0
  0
LINE
  5
21B
330
17
100
AcDbEntity
  8
ETHERNET
100
AcDbLine
 10
145.256
 20
565.8186000000002
 30
0.0
 11
145.256
 21
567.8186000000002
 31
0.0
  0
LINE
  5
21C
330
17
100
AcDbEntity
  8
DEVICES
370
5
100
AcDbLine
 10
145.256
 20
563.3788000000002
 30
0.0
 11
187.59199999999998
 21
563.3788000000002
 31
0.0
  0
TEXT
  5
21D
330
17
100
AcDbEntity
  8
ETHERNET
100
AcDbText
 10
146.256
 20
557.4992000000002
 30
0.0
 40
1.8
  1
Ethernet RJ45
100
AcDbText
  0
LINE
  5
21E
330
17
100
AcDbEntity
  8
ETHERNET
100
AcDbLine
 10
144.256
 20
559.9390000000002
 30
0.0
 11
146.256
 21
559.9390000000002
 31
0.0
  0
LINE
  5
21F
330
17
100
AcDbEntity
  8
ETHERNET
100
AcDbLine
 10
145.256
 20
558.9390000000002
 30
0.0
 11
145.256
 21
560.9390000000002
 31
0.0
  0
LINE
  5
220
330
17
100
AcDbEntity
  8
DEVICES
370
13
100
AcDbLine
 10
145.256
 20
556.4992000000002
 30
0.0
 11
187.59199999999998
 21
556.4992000000002
 31
0.0
  0
TEXT
  5
221
330
17
100
AcDbEntity
  8
DEVICE_TEXT
100
AcDbText
 10
146.256
 20
556.9992000000002
 30
0.0
 40
1.8
  1
OUTPUT
100
AcDbText
  0
LINE
  5
222
330
17
100
AcDbEntity
  8
DEVICES
370
5
100
AcDbLine
 10
145.256
 20
549.6196000000002
 30
0.0
 11
187.59199999999998
 21
549.6196000000002
 31
0.0
  0
TEXT
  5
223
330
17
100
AcDbEntity
  8
USB
100
AcDbText
 10
186.59199999999998
 20
543.7400000000002
 30
0.0
 40
1.8
  1
USB Out
100
AcDbText
  0
LINE
  5
224
330
17
100
AcDbEntity
  8
USB
100
AcDbLine
 10
186.59199999999998
 20
546.1798000000002
 30
0.0
 11
188.59199999999998
 21
546.1798000000002
 31
0.0
  0
LINE
  5
225
330
17
100
AcDbEntity
  8
USB
100
AcDbLine
 10
187.59199999999998
 20
545.1798000000002
 30
0.0
 11
187.59199999999998
 21
547.1798000000002
 31
0.0
  0
TEXT
  5
226
330
17
100
AcDbEntity
  8
NOTES
100
AcDbText
 10
146.256
 20
543.74
 30
0.0
 40
1.8
  1
S/N: CLNG-MIC-02
100
AcDbText
  0
LWPOLYLINE
  5
227
330
17
100
AcDbEntity
  8
DEVICES
370
35
100
AcDbPolyline
 90
5
 70
0
 10
240.512
 20
542.74
 10
282.848
 20
542.74
 10
282.848
 20
580.8424000000001
 10
240.512
 20
580.8424000000001
 10
240.512
 20
542.74
  0
LWPOLYLINE
  5
228
330
17
100
AcDbEntity
  8
DEVICES
100
AcDbPolyline
 90
2
 70
0
 10
240.512
 20
570.2584000000002
 10
282.848
 20
570.2584000000002
  0
TEXT
  5
229
330
17
100
AcDbEntity
  8
DEVICE_TEXT
100
AcDbText
 10
241.512
 20
572.7584000000002
 30
0.0
 40
2.5
  1
Shure ULXD2 Wireless Mic 1
100
AcDbText
  0
LINE
  5
22A
330
17
100
AcDbEntity
  8
DEVICES
370
5
100
AcDbLine
 10
240.512
 20
570.2584000000002
 30
0.0
 11
282.848
 21
570.2584000000002
 31
0.0
  0
TEXT
  5
22B
330
17
100
AcDbEntity
  8
ETHERNET
100
AcDbText
 10
241.512
 20
564.3788000000002
 30
0.0
 40
1.8
  1
ULXD2/B58
100
AcDbText
  0
LINE
  5
22C
330
17
100
AcDbEntity
  8
ETHERNET
100
AcDbLine
 10
239.512
 20
566.8186000000002
 30
0.0
 11
241.512
 21
566.8186000000002
 31
0.0
  0
LINE
  5
22D
330
17
100
AcDbEntity
  8
ETHERNET
100
AcDbLine
 10
240.512
 20
565.8186000000002
 30
0.0
 11
240.512
 21
567.8186000000002
 31
0.0
  0
LINE
  5
22E
330
17
100
AcDbEntity
  8
DEVICES
370
5
100
AcDbLine
 10
240.512
 20
563.3788000000002
 30
0.0
 11
282.848
 21
563.3788000000002
 31
0.0
  0
TEXT
  5
22F
330
17
100
AcDbEntity
  8
ETHERNET
100
AcDbText
 10
241.512
 20
557.4992000000002
 30
0.0
 40
1.8
  1
Ethernet RJ45
100
AcDbText
  0
LINE
  5
230
330
17
100
AcDbEntity
  8
ETHERNET
100
AcDbLine
 10
239.512
 20
559.9390000000002
 30
0.0
 11
241.512
 21
559.9390000000002
 31
0.0
  0
LINE
  5
231
330
17
100
AcDbEntity
  8
ETHERNET
100
AcDbLine
 10
240.512
 20
558.9390000000002
 30
0.0
 11
240.512
 21
560.9390000000002
 31
0.0
  0
LINE
  5
232
330
17
100
AcDbEntity
  8
DEVICES
370
13
100
AcDbLine
 10
240.512
 20
556.4992000000002
 30
0.0
 11
282.848
 21
556.4992000000002
 31
0.0
  0
TEXT
  5
233
330
17
100
AcDbEntity
  8
DEVICE_TEXT
100
AcDbText
 10
241.512
 20
556.9992000000002
 30
0.0
 40
1.8
  1
OUTPUT
100
AcDbText
  0
LINE
  5
234
330
17
100
AcDbEntity
  8
DEVICES
370
5
100
AcDbLine
 10
240.512
 20
549.6196000000002
 30
0.0
 11
282.848
 21
549.6196000000002
 31
0.0
  0
TEXT
  5
235
330
17
100
AcDbEntity
  8
USB
100
AcDbText
 10
281.848
 20
543.7400000000002
 30
0.0
 40
1.8
  1
USB Out
100
AcDbText
  0
LINE
  5
236
330
17
100
AcDbEntity
  8
USB
100
AcDbLine
 10
281.848
 20
546.1798000000002
 30
0.0
 11
283.848
 21
546.1798000000002
 31
0.0
  0
LINE
  5
237
330
17
100
AcDbEntity
  8
USB
100
AcDbLine
 10
282.848
 20
545.1798000000002
 30
0.0
 11
282.848
 21
547.1798000000002
 31
0.0
  0
TEXT
  5
238
330
17
100
AcDbEntity
  8
NOTES
100
AcDbText
 10
241.512
 20
543.74
 30
0.0
 40
1.8
  1
S/N: ULXD2-B58-01
100
AcDbText
  0
LWPOLYLINE
  5
239
330
17
100
AcDbEntity
  8
DEVICES
370
35
100
AcDbPolyline
 90
5
 70
0
 10
526.28
 20
542.74
 10
568.616
 20
542.74
 10
568.616
 20
580.8424000000001
 10
526.28
 20
580.8424000000001
 10
526.28
 20
542.74
  0
LWPOLYLINE
  5
23A
330
17
100
AcDbEntity
  8
DEVICES
100
AcDbPolyline
 90
2
 70
0
 10
526.28
 20
570.2584000000002
 10
568.616
 20
570.2584000000002
  0
TEXT
  5
23B
330
17
100
AcDbEntity
  8
DEVICE_TEXT
100
AcDbText
 10
527.28
 20
572.7584000000002
 30
0.0
 40
2.5
  1
Shure ULXD2 Wireless Mic 4
100
AcDbText
  0
LINE
  5
23C
330
17
100
AcDbEntity
  8
DEVICES
370
5
100
AcDbLine
 10
526.28
 20
570.2584000000002
 30
0.0
 11
568.616
 21
570.2584000000002
 31
0.0
  0
TEXT
  5
23D
330
17
100
AcDbEntity
  8
ETHERNET
100
AcDbText
 10
527.28
 20
564.3788000000002
 30
0.0
 40
1.8
  1
ULXD2/B58
100
AcDbText
  0
LINE
  5
23E
330
17
100
AcDbEntity
  8
ETHERNET
100
AcDbLine
 10
525.28
 20
566.8186000000002
 30
0.0
 11
527.28
 21
566.8186000000002
 31
0.0
  0
LINE
  5
23F
330
17
100
AcDbEntity
  8
ETHERNET
100
AcDbLine
 10
526.28
 20
565.8186000000002
 30
0.0
 11
526.28
 21
567.8186000000002
 31
0.0
  0
LINE
  5
240
330
17
100
AcDbEntity
  8
DEVICES
370
5
100
AcDbLine
 10
526.28
 20
563.3788000000002
 30
0.0
 11
568.616
 21
563.3788000000002
 31
0.0
  0
TEXT
  5
241
330
17
100
AcDbEntity
  8
ETHERNET
100
AcDbText
 10
527.28
 20
557.4992000000002
 30
0.0
 40
1.8
  1
Ethernet RJ45
100
AcDbText
  0
LINE
  5
242
330
17
100
AcDbEntity
  8
ETHERNET
100
AcDbLine
 10
525.28
 20
559.9390000000002
 30
0.0
 11
527.28
 21
559.9390000000002
 31
0.0
  0
LINE
  5
243
330
17
100
AcDbEntity
  8
ETHERNET
100
AcDbLine
 10
526.28
 20
558.9390000000002
 30
0.0
 11
526.28
 21
560.9390000000002
 31
0.0
  0
LINE
  5
244
330
17
100
AcDbEntity
  8
DEVICES
370
13
100
AcDbLine
 10
526.28
 20
556.4992000000002
 30
0.0
 11
568.616
 21
556.4992000000002
 31
0.0
  0
TEXT
  5
245
330
17
100
AcDbEntity
  8
DEVICE_TEXT
100
AcDbText
 10
527.28
 20
556.9992000000002
 30
0.0
 40
1.8
  1
OUTPUT
100
AcDbText
  0
LINE
  5
246
330
17
100
AcDbEntity
  8
DEVICES
370
5
100
AcDbLine
 10
526.28
 20
549.6196000000002
 30
0.0
 11
568.616
 21
549.6196000000002
 31
0.0
  0
TEXT
  5
247
330
17
100
AcDbEntity
  8
USB
100
AcDbText
 10
567.616
 20
543.7400000000002
 30
0.0
 40
1.8
  1
USB Out
100
AcDbText
  0
LINE
  5
248
330
17
100
AcDbEntity
  8
USB
100
AcDbLine
 10
567.616
 20
546.1798000000002
 30
0.0
 11
569.616
 21
546.1798000000002
 31
0.0
  0
LINE
  5
249
330
17
100
AcDbEntity
  8
USB
100
AcDbLine
 10
568.616
 20
545.1798000000002
 30
0.0
 11
568.616
 21
547.1798000000002
 31
0.0
  0
TEXT
  5
24A
330
17
100
AcDbEntity
  8
NOTES
100
AcDbText
 10
527.28
 20
543.74
 30
0.0
 40
1.8
  1
S/N: ULXD2-B58-04
100
AcDbText
  0
LWPOLYLINE
  5
24B
330
17
100
AcDbEntity
  8
DEVICES
370
35
100
AcDbPolyline
 90
5
 70
0
 10
182.3
 20
87.0988000000001
 10
224.63600000000002
 20
87.0988000000001
 10
224.63600000000002
 20
132.08080000000007
 10
182.3
 20
132.08080000000007
 10
182.3
 20
87.0988000000001
  0
LWPOLYLINE
  5
24C
330
17
100
AcDbEntity
  8
DEVICES
100
AcDbPolyline
 90
2
 70
0
 10
182.3
 20
121.49680000000006
 10
224.63600000000002
 20
121.49680000000006
  0
TEXT
  5
24D
330
17
100
AcDbEntity
  8
DEVICE_TEXT
100
AcDbText
 10
183.3
 20
123.99680000000006
 30
0.0
 40
2.5
  1
Samsung QM90B Display Left
100
AcDbText
  0
LINE
  5
24E
330
17
100
AcDbEntity
  8
DEVICES
370
5
100
AcDbLine
 10
182.3
 20
121.49680000000006
 30
0.0
 11
224.63600000000002
 21
121.49680000000006
 31
0.0
  0
TEXT
  5
24F
330
17
100
AcDbEntity
  8
ETHERNET
100
AcDbText
 10
183.3
 20
115.61720000000007
 30
0.0
 40
1.8
  1
90" Display
100
AcDbText
  0
LINE
  5
250
330
17
100
AcDbEntity
  8
ETHERNET
100
AcDbLine
 10
181.3
 20
118.05700000000007
 30
0.0
 11
183.3
 21
118.05700000000007
 31
0.0
  0
LINE
  5
251
330
17
100
AcDbEntity
  8
ETHERNET
100
AcDbLine
 10
182.3
 20
117.05700000000007
 30
0.0
 11
182.3
 21
119.05700000000007
 31
0.0
  0
LINE
  5
252
330
17
100
AcDbEntity
  8
DEVICES
370
5
100
AcDbLine
 10
182.3
 20
114.61720000000007
 30
0.0
 11
224.63600000000002
 21
114.61720000000007
 31
0.0
  0
TEXT
  5
253
330
17
100
AcDbEntity
  8
ETHERNET
100
AcDbText
 10
183.3
 20
108.73760000000007
 30
0.0
 40
1.8
  1
Ethernet RJ45
100
AcDbText
  0
LINE
  5
254
330
17
100
AcDbEntity
  8
ETHERNET
100
AcDbLine
 10
181.3
 20
111.17740000000008
 30
0.0
 11
183.3
 21
111.17740000000008
 31
0.0
  0
LINE
  5
255
330
17
100
AcDbEntity
  8
ETHERNET
100
AcDbLine
 10
182.3
 20
110.17740000000008
 30
0.0
 11
182.3
 21
112.17740000000008
 31
0.0
  0
LINE
  5
256
330
17
100
AcDbEntity
  8
DEVICES
370
13
100
AcDbLine
 10
182.3
 20
107.73760000000007
 30
0.0
 11
224.63600000000002
 21
107.73760000000007
 31
0.0
  0
TEXT
  5
257
330
17
100
AcDbEntity
  8
DEVICE_TEXT
100
AcDbText
 10
183.3
 20
108.23760000000007
 30
0.0
 40
1.8
  1
INPUT
100
AcDbText
  0
LINE
  5
258
330
17
100
AcDbEntity
  8
DEVICES
370
5
100
AcDbLine
 10
182.3
 20
100.85800000000008
 30
0.0
 11
224.63600000000002
 21
100.85800000000008
 31
0.0
  0
TEXT
  5
259
330
17
100
AcDbEntity
  8
HDMI
100
AcDbText
 10
183.3
 20
94.97840000000008
 30
0.0
 40
1.8
  1
HDMI In 1
100
AcDbText
  0
LINE
  5
25A
330
17
100
AcDbEntity
  8
HDMI
100
AcDbLine
 10
181.3
 20
97.41820000000008
 30
0.0
 11
183.3
 21
97.41820000000008
 31
0.0
  0
LINE
  5
25B
330
17
100
AcDbEntity
  8
HDMI
100
AcDbLine
 10
182.3
 20
96.41820000000008
 30
0.0
 11
182.3
 21
98.41820000000008
 31
0.0
  0
LINE
  5
25C
330
17
100
AcDbEntity
  8
DEVICES
370
5
100
AcDbLine
 10
182.3
 20
93.97840000000008
 30
0.0
 11
224.63600000000002
 21
93.97840000000008
 31
0.0
  0
TEXT
  5
25D
330
17
100
AcDbEntity
  8
HDMI
100
AcDbText
 10
183.3
 20
88.09880000000008
 30
0.0
 40
1.8
  1
HDMI In 2
100
AcDbText
  0
LINE
  5
25E
330
17
100
AcDbEntity
  8
HDMI
100
AcDbLine
 10
181.3
 20
90.53860000000009
 30
0.0
 11
183.3
 21
90.53860000000009
 31
0.0
  0
LINE
  5
25F
330
17
100
AcDbEntity
  8
HDMI
100
AcDbLine
 10
182.3
 20
89.53860000000009
 30
0.0
 11
182.3
 21
91.53860000000009
 31
0.0
  0
TEXT
  5
260
330
17
100
AcDbEntity
  8
NOTES
100
AcDbText
 10
183.3
 20
88.0988000000001
 30
0.0
 40
1.8
  1
S/N: QM90B-L
100
AcDbText
  0
LWPOLYLINE
  5
261
330
17
100
AcDbEntity
  8
DEVICES
370
35
100
AcDbPolyline
 90
5
 70
0
 10
229.928
 20
379.74640000000005
 10
272.264
 20
379.74640000000005
 10
272.264
 20
404.0896000000001
 10
229.928
 20
404.0896000000001
 10
229.928
 20
379.74640000000005
  0
LWPOLYLINE
  5
262
330
17
100
AcDbEntity
  8
DEVICES
100
AcDbPolyline
 90
2
 70
0
 10
229.928
 20
393.5056000000001
 10
272.264
 20
393.5056000000001
  0
TEXT
  5
263
330
17
100
AcDbEntity
  8
DEVICE_TEXT
100
AcDbText
 10
230.928
 20
396.0056000000001
 30
0.0
 40
2.5
  1
Cisco Room Navigator Touch P
100
AcDbText
  0
LINE
  5
264
330
17
100
AcDbEntity
  8
DEVICES
370
5
100
AcDbLine
 10
229.928
 20
393.5056000000001
 30
0.0
 11
272.264
 21
393.5056000000001
 31
0.0
  0
TEXT
  5
265
330
17
100
AcDbEntity
  8
ETHERNET
100
AcDbText
 10
230.928
 20
387.6260000000001
 30
0.0
 40
1.8
  1
CS-T10-NR-K9
100
AcDbText
  0
LINE
  5
266
330
17
100
AcDbEntity
  8
ETHERNET
100
AcDbLine
 10
228.928
 20
390.0658000000001
 30
0.0
 11
230.928
 21
390.0658000000001
 31
0.0
  0
LINE
  5
267
330
17
100
AcDbEntity
  8
ETHERNET
100
AcDbLine
 10
229.928
 20
389.0658000000001
 30
0.0
 11
229.928
 21
391.0658000000001
 31
0.0
  0
LINE
  5
268
330
17
100
AcDbEntity
  8
DEVICES
370
5
100
AcDbLine
 10
229.928
 20
386.6260000000001
 30
0.0
 11
272.264
 21
386.6260000000001
 31
0.0
  0
TEXT
  5
269
330
17
100
AcDbEntity
  8
ETHERNET
100
AcDbText
 10
230.928
 20
380.7464000000001
 30
0.0
 40
1.8
  1
Ethernet RJ45
100
AcDbText
  0
LINE
  5
26A
330
17
100
AcDbEntity
  8
ETHERNET
100
AcDbLine
 10
228.928
 20
383.1862000000001
 30
0.0
 11
230.928
 21
383.1862000000001
 31
0.0
  0
LINE
  5
26B
330
17
100
AcDbEntity
  8
ETHERNET
100
AcDbLine
 10
229.928
 20
382.1862000000001
 30
0.0
 11
229.928
 21
384.1862000000001
 31
0.0
  0
TEXT
  5
26C
330
17
100
AcDbEntity
  8
NOTES
100
AcDbText
 10
230.928
 20
380.74640000000005
 30
0.0
 40
1.8
  1
S/N: CS-T10-NR-01
100
AcDbText
  0
LWPOLYLINE
  5
26D
330
17
100
AcDbEntity
  8
DEVICES
370
35
100
AcDbPolyline
 90
5
 70
0
 10
325.184
 20
596.7184000000001
 10
367.52000000000004
 20
596.7184000000001
 10
367.52000000000004
 20
641.7004000000001
 10
325.184
 20
641.7004000000001
 10
325.184
 20
596.7184000000001
  0
LWPOLYLINE
  5
26E
330
17
100
AcDbEntity
  8
DEVICES
100
AcDbPolyline
 90
2
 70
0
 10
325.184
 20
631.1164000000001
 10
367.52000000000004
 20
631.1164000000001
  0
TEXT
  5
26F
330
17
100
AcDbEntity
  8
DEVICE_TEXT
100
AcDbText
 10
326.184
 20
633.6164000000001
 30
0.0
 40
2.5
  1
Cisco PTZ 4K Camera 3
100
AcDbText
  0
LINE
  5
270
330
17
100
AcDbEntity
  8
DEVICES
370
5
100
AcDbLine
 10
325.184
 20
631.1164000000001
 30
0.0
 11
367.52000000000004
 21
631.1164000000001
 31
0.0
  0
TEXT
  5
271
330
17
100
AcDbEntity
  8
ETHERNET
100
AcDbText
 10
326.184
 20
625.2368000000001
 30
0.0
 40
1.8
  1
CTS-CAM-P60-K9
100
AcDbText
  0
LINE
  5
272
330
17
100
AcDbEntity
  8
ETHERNET
100
AcDbLine
 10
324.184
 20
627.6766000000001
 30
0.0
 11
326.184
 21
627.6766000000001
 31
0.0
  0
LINE
  5
273
330
17
100
AcDbEntity
  8
ETHERNET
100
AcDbLine
 10
325.184
 20
626.6766000000001
 30
0.0
 11
325.184
 21
628.6766000000001
 31
0.0
  0
LINE
  5
274
330
17
100
AcDbEntity
  8
DEVICES
370
5
100
AcDbLine
 10
325.184
 20
624.2368000000001
 30
0.0
 11
367.52000000000004
 21
624.2368000000001
 31
0.0
  0
TEXT
  5
275
330
17
100
AcDbEntity
  8
ETHERNET
100
AcDbText
 10
326.184
 20
618.3572000000001
 30
0.0
 40
1.8
  1
Ethernet RJ45
100
AcDbText
  0
LINE
  5
276
330
17
100
AcDbEntity
  8
ETHERNET
100
AcDbLine
 10
324.184
 20
620.7970000000001
 30
0.0
 11
326.184
 21
620.7970000000001
 31
0.0
  0
LINE
  5
277
330
17
100
AcDbEntity
  8
ETHERNET
100
AcDbLine
 10
325.184
 20
619.7970000000001
 30
0.0
 11
325.184
 21
621.7970000000001
 31
0.0
  0
LINE
  5
278
330
17
100
AcDbEntity
  8
DEVICES
370
13
100
AcDbLine
 10
325.184
 20
617.3572000000001
 30
0.0
 11
367.52000000000004
 21
617.3572000000001
 31
0.0
  0
TEXT
  5
279
330
17
100
AcDbEntity
  8
DEVICE_TEXT
100
AcDbText
 10
326.184
 20
617.8572000000001
 30
0.0
 40
1.8
  1
OUTPUT
100
AcDbText
  0
LINE
  5
27A
330
17
100
AcDbEntity
  8
DEVICES
370
5
100
AcDbLine
 10
325.184
 20
610.4776000000002
 30
0.0
 11
367.52000000000004
 21
610.4776000000002
 31
0.0
  0
TEXT
  5
27B
330
17
100
AcDbEntity
  8
HDMI
100
AcDbText
 10
366.52000000000004
 20
604.5980000000002
 30
0.0
 40
1.8
  1
HDMI Out
100
AcDbText
  0
LINE
  5
27C
330
17
100
AcDbEntity
  8
HDMI
100
AcDbLine
 10
366.52000000000004
 20
607.0378000000002
 30
0.0
 11
368.52000000000004
 21
607.0378000000002
 31
0.0
  0
LINE
  5
27D
330
17
100
AcDbEntity
  8
HDMI
100
AcDbLine
 10
367.52000000000004
 20
606.0378000000002
 30
0.0
 11
367.52000000000004
 21
608.0378000000002
 31
0.0
  0
LINE
  5
27E
330
17
100
AcDbEntity
  8
DEVICES
370
5
100
AcDbLine
 10
325.184
 20
603.5980000000002
 30
0.0
 11
367.52000000000004
 21
603.5980000000002
 31
0.0
  0
TEXT
  5
27F
330
17
100
AcDbEntity
  8
USB
100
AcDbText
 10
366.52000000000004
 20
597.7184000000002
 30
0.0
 40
1.8
  1
USB Out
100
AcDbText
  0
LINE
  5
280
330
17
100
AcDbEntity
  8
USB
100
AcDbLine
 10
366.52000000000004
 20
600.1582000000002
 30
0.0
 11
368.52000000000004
 21
600.1582000000002
 31
0.0
  0
LINE
  5
281
330
17
100
AcDbEntity
  8
USB
100
AcDbLine
 10
367.52000000000004
 20
599.1582000000002
 30
0.0
 11
367.52000000000004
 21
601.1582000000002
 31
0.0
  0
TEXT
  5
282
330
17
100
AcDbEntity
  8
NOTES
100
AcDbText
 10
326.184
 20
597.7184000000001
 30
0.0
 40
1.8
  1
S/N: CAM-P60-03
100
AcDbText
  0
LWPOLYLINE
  5
283
330
17
100
AcDbEntity
  8
HDMI
370
25
100
AcDbPolyline
 90
4
 70
0
 10
155.84
 20
619.2094000000001
 10
203.46800000000002
 20
619.2094000000001
 10
203.46800000000002
 20
473.41480000000007
 10
251.096
 20
473.41480000000007
  0
LWPOLYLINE
  5
284
330
17
100
AcDbEntity
  8
HDMI
370
18
100
AcDbPolyline
 90
3
 70
0
 10
249.096
 20
474.41480000000007
 10
251.096
 20
473.41480000000007
 10
249.096
 20
472.41480000000007
  0
TEXT
  5
285
330
17
100
AcDbEntity
  8
HDMI
100
AcDbText
 10
227.282
 20
474.91480000000007
 30
0.0
 40
1.8
  1
HDMI
100
AcDbText
  0
LWPOLYLINE
  5
286
330
17
100
AcDbEntity
  8
HDMI
370
25
100
AcDbPolyline
 90
4
 70
0
 10
251.096
 20
619.2094000000001
 10
251.096
 20
619.2094000000001
 10
251.096
 20
473.41480000000007
 10
251.096
 20
473.41480000000007
  0
TEXT
  5
287
330
17
100
AcDbEntity
  8
HDMI
100
AcDbText
 10
251.096
 20
474.91480000000007
 30
0.0
 40
1.8
  1
HDMI
100
AcDbText
  0
LWPOLYLINE
  5
288
330
17
100
AcDbEntity
  8
HDMI
370
25
100
AcDbPolyline
 90
4
 70
0
 10
346.35200000000003
 20
619.2094000000001
 10
298.72400000000005
 20
619.2094000000001
 10
298.72400000000005
 20
473.41480000000007
 10
251.096
 20
473.41480000000007
  0
LWPOLYLINE
  5
289
330
17
100
AcDbEntity
  8
HDMI
370
18
100
AcDbPolyline
 90
3
 70
0
 10
253.096
 20
474.41480000000007
 10
251.096
 20
473.41480000000007
 10
253.096
 20
472.41480000000007
  0
TEXT
  5
28A
330
17
100
AcDbEntity
  8
HDMI
100
AcDbText
 10
274.91
 20
474.91480000000007
 30
0.0
 40
1.8
  1
HDMI
100
AcDbText
  0
LWPOLYLINE
  5
28B
330
17
100
AcDbEntity
  8
USB
370
25
100
AcDbPolyline
 90
4
 70
0
 10
155.84
 20
619.2094000000001
 10
204.96800000000002
 20
619.2094000000001
 10
204.96800000000002
 20
473.41480000000007
 10
251.096
 20
473.41480000000007
  0
LWPOLYLINE
  5
28C
330
17
100
AcDbEntity
  8
USB
370
18
100
AcDbPolyline
 90
3
 70
0
 10
249.096
 20
474.41480000000007
 10
251.096
 20
473.41480000000007
 10
249.096
 20
472.41480000000007
  0
TEXT
  5
28D
330
17
100
AcDbEntity
  8
USB
100
AcDbText
 10
228.032
 20
474.91480000000007
 30
0.0
 40
1.8
  1
USB
100
AcDbText
  0
LWPOLYLINE
  5
28E
330
17
100
AcDbEntity
  8
USB
370
25
100
AcDbPolyline
 90
4
 70
0
 10
251.096
 20
619.2094000000001
 10
252.596
 20
619.2094000000001
 10
252.596
 20
473.41480000000007
 10
251.096
 20
473.41480000000007
  0
LWPOLYLINE
  5
28F
330
17
100
AcDbEntity
  8
USB
370
18
100
AcDbPolyline
 90
3
 70
0
 10
253.096
 20
474.41480000000007
 10
251.096
 20
473.41480000000007
 10
253.096
 20
472.41480000000007
  0
TEXT
  5
290
330
17
100
AcDbEntity
  8
USB
100
AcDbText
 10
251.846
 20
474.91480000000007
 30
0.0
 40
1.8
  1
USB
100
AcDbText
  0
LWPOLYLINE
  5
291
330
17
100
AcDbEntity
  8
HDMI
370
25
100
AcDbPolyline
 90
4
 70
0
 10
251.096
 20
473.41480000000007
 10
227.282
 20
473.41480000000007
 10
227.282
 20
109.58980000000008
 10
203.46800000000002
 20
109.58980000000008
  0
LWPOLYLINE
  5
292
330
17
100
AcDbEntity
  8
HDMI
370
18
100
AcDbPolyline
 90
3
 70
0
 10
205.46800000000002
 20
110.58980000000008
 10
203.46800000000002
 20
109.58980000000008
 10
205.46800000000002
 20
108.58980000000008
  0
TEXT
  5
293
330
17
100
AcDbEntity
  8
HDMI
100
AcDbText
 10
215.375
 20
111.08980000000008
 30
0.0
 40
1.8
  1
HDMI
100
AcDbText
  0
LWPOLYLINE
  5
294
330
17
100
AcDbEntity
  8
HDMI
370
25
100
AcDbPolyline
 90
4
 70
0
 10
251.096
 20
473.41480000000007
 10
274.90999999999997
 20
473.41480000000007
 10
274.90999999999997
 20
109.58980000000008
 10
298.724
 20
109.58980000000008
  0
LWPOLYLINE
  5
295
330
17
100
AcDbEntity
  8
HDMI
370
18
100
AcDbPolyline
 90
3
 70
0
 10
296.724
 20
110.58980000000008
 10
298.724
 20
109.58980000000008
 10
296.724
 20
108.58980000000008
  0
TEXT
  5
296
330
17
100
AcDbEntity
  8
HDMI
100
AcDbText
 10
286.817
 20
111.08980000000008
 30
0.0
 40
1.8
  1
HDMI
100
AcDbText
  0
LWPOLYLINE
  5
297
330
17
100
AcDbEntity
  8
DANTE
370
25
100
AcDbPolyline
 90
2
 70
0
 10
298.724
 20
317.3008000000001
 10
203.46800000000002
 20
317.3008000000001
  0
LWPOLYLINE
  5
298
330
17
100
AcDbEntity
  8
DANTE
370
18
100
AcDbPolyline
 90
3
 70
0
 10
205.46800000000002
 20
318.3008000000001
 10
203.46800000000002
 20
317.3008000000001
 10
205.46800000000002
 20
316.3008000000001
  0
TEXT
  5
299
330
17
100
AcDbEntity
  8
DANTE
100
AcDbText
 10
228.782
 20
318.8008000000001
 30
0.0
 40
1.8
  1
Dante
100
AcDbText
  0
LWPOLYLINE
  5
29A
330
17
100
AcDbEntity
  8
DANTE
370
25
100
AcDbPolyline
 90
4
 70
0
 10
203.46800000000002
 20
317.3008000000001
 10
228.782
 20
317.3008000000001
 10
228.782
 20
201.40600000000006
 10
251.096
 20
201.40600000000006
  0
LWPOLYLINE
  5
29B
330
17
100
AcDbEntity
  8
DANTE
370
18
100
AcDbPolyline
 90
3
 70
0
 10
249.096
 20
202.40600000000006
 10
251.096
 20
201.40600000000006
 10
249.096
 20
200.40600000000006
  0
TEXT
  5
29C
330
17
100
AcDbEntity
  8
DANTE
100
AcDbText
 10
239.93900000000002
 20
202.90600000000006
 30
0.0
 40
1.8
  1
Dante
100
AcDbText
  0
LWPOLYLINE
  5
29D
330
17
100
AcDbEntity
  8
SPEAKER_LEVEL
370
25
100
AcDbPolyline
 90
4
 70
0
 10
251.096
 20
201.40600000000006
 10
161.132
 20
201.40600000000006
 10
161.132
 20
55.6114
 10
71.168
 20
55.6114
  0
LWPOLYLINE
  5
29E
330
17
100
AcDbEntity
  8
SPEAKER_LEVEL
370
18
100
AcDbPolyline
 90
3
 70
0
 10
73.168
 20
56.6114
 10
71.168
 20
55.6114
 10
73.168
 20
54.6114
  0
TEXT
  5
29F
330
17
100
AcDbEntity
  8
SPEAKER_LEVEL
100
AcDbText
 10
116.15
 20
57.1114
 30
0.0
 40
1.8
  1
Speaker
100
AcDbText
  0
LWPOLYLINE
  5
2A0
330
17
100
AcDbEntity
  8
SPEAKER_LEVEL
370
25
100
AcDbPolyline
 90
4
 70
0
 10
251.096
 20
201.40600000000006
 10
208.76
 20
201.40600000000006
 10
208.76
 20
55.6114
 10
166.424
 20
55.6114
  0
LWPOLYLINE
  5
2A1
330
17
100
AcDbEntity
  8
SPEAKER_LEVEL
370
18
100
AcDbPolyline
 90
3
 70
0
 10
168.424
 20
56.6114
 10
166.424
 20
55.6114
 10
168.424
 20
54.6114
  0
TEXT
  5
2A2
330
17
100
AcDbEntity
  8
SPEAKER_LEVEL
100
AcDbText
 10
187.59199999999998
 20
57.1114
 30
0.0
 40
1.8
  1
Speaker
100
AcDbText
  0
LWPOLYLINE
  5
2A3
330
17
100
AcDbEntity
  8
SPEAKER_LEVEL
370
25
100
AcDbPolyline
 90
4
 70
0
 10
251.096
 20
201.40600000000006
 10
256.38800000000003
 20
201.40600000000006
 10
256.38800000000003
 20
55.6114
 10
261.68
 20
55.6114
  0
LWPOLYLINE
  5
2A4
330
17
100
AcDbEntity
  8
SPEAKER_LEVEL
370
18
100
AcDbPolyline
 90
3
 70
0
 10
259.68
 20
56.6114
 10
261.68
 20
55.6114
 10
259.68
 20
54.6114
  0
TEXT
  5
2A5
330
17
100
AcDbEntity
  8
SPEAKER_LEVEL
100
AcDbText
 10
259.034
 20
57.1114
 30
0.0
 40
1.8
  1
Speaker
100
AcDbText
  0
LWPOLYLINE
  5
2A6
330
17
100
AcDbEntity
  8
SPEAKER_LEVEL
370
25
100
AcDbPolyline
 90
4
 70
0
 10
251.096
 20
201.40600000000006
 10
304.01599999999996
 20
201.40600000000006
 10
304.01599999999996
 20
55.6114
 10
356.936
 20
55.6114
  0
LWPOLYLINE
  5
2A7
330
17
100
AcDbEntity
  8
SPEAKER_LEVEL
370
18
100
AcDbPolyline
 90
3
 70
0
 10
354.936
 20
56.6114
 10
356.936
 20
55.6114
 10
354.936
 20
54.6114
  0
TEXT
  5
2A8
330
17
100
AcDbEntity
  8
SPEAKER_LEVEL
100
AcDbText
 10
330.476
 20
57.1114
 30
0.0
 40
1.8
  1
Speaker
100
AcDbText
  0
LWPOLYLINE
  5
2A9
330
17
100
AcDbEntity
  8
SPEAKER_LEVEL
370
25
100
AcDbPolyline
 90
4
 70
0
 10
251.096
 20
201.40600000000006
 10
351.644
 20
201.40600000000006
 10
351.644
 20
55.6114
 10
452.192
 20
55.6114
  0
LWPOLYLINE
  5
2AA
330
17
100
AcDbEntity
  8
SPEAKER_LEVEL
370
18
100
AcDbPolyline
 90
3
 70
0
 10
450.192
 20
56.6114
 10
452.192
 20
55.6114
 10
450.192
 20
54.6114
  0
TEXT
  5
2AB
330
17
100
AcDbEntity
  8
SPEAKER_LEVEL
100
AcDbText
 10
401.918
 20
57.1114
 30
0.0
 40
1.8
  1
Speaker
100
AcDbText
  0
LWPOLYLINE
  5
2AC
330
17
100
AcDbEntity
  8
SPEAKER_LEVEL
370
25
100
AcDbPolyline
 90
4
 70
0
 10
251.096
 20
201.40600000000006
 10
399.272
 20
201.40600000000006
 10
399.272
 20
55.6114
 10
547.448
 20
55.6114
  0
LWPOLYLINE
  5
2AD
330
17
100
AcDbEntity
  8
SPEAKER_LEVEL
370
18
100
AcDbPolyline
 90
3
 70
0
 10
545.448
 20
56.6114
 10
547.448
 20
55.6114
 10
545.448
 20
54.6114
  0
TEXT
  5
2AE
330
17
100
AcDbEntity
  8
SPEAKER_LEVEL
100
AcDbText
 10
473.36
 20
57.1114
 30
0.0
 40
1.8
  1
Speaker
100
AcDbText
  0
LWPOLYLINE
  5
2AF
330
17
100
AcDbEntity
  8
SPEAKER_LEVEL
370
25
100
AcDbPolyline
 90
4
 70
0
 10
251.096
 20
201.40600000000006
 10
446.90000000000003
 20
201.40600000000006
 10
446.90000000000003
 20
55.6114
 10
642.7040000000001
 20
55.6114
  0
LWPOLYLINE
  5
2B0
330
17
100
AcDbEntity
  8
SPEAKER_LEVEL
370
18
100
AcDbPolyline
 90
3
 70
0
 10
640.7040000000001
 20
56.6114
 10
642.7040000000001
 20
55.6114
 10
640.7040000000001
 20
54.6114
  0
TEXT
  5
2B1
330
17
100
AcDbEntity
  8
SPEAKER_LEVEL
100
AcDbText
 10
544.802
 20
57.1114
 30
0.0
 40
1.8
  1
Speaker
100
AcDbText
  0
LWPOLYLINE
  5
2B2
330
17
100
AcDbEntity
  8
SPEAKER_LEVEL
370
25
100
AcDbPolyline
 90
4
 70
0
 10
251.096
 20
201.40600000000006
 10
494.528
 20
201.40600000000006
 10
494.528
 20
55.6114
 10
737.96
 20
55.6114
  0
LWPOLYLINE
  5
2B3
330
17
100
AcDbEntity
  8
SPEAKER_LEVEL
370
18
100
AcDbPolyline
 90
3
 70
0
 10
735.96
 20
56.6114
 10
737.96
 20
55.6114
 10
735.96
 20
54.6114
  0
TEXT
  5
2B4
330
17
100
AcDbEntity
  8
SPEAKER_LEVEL
100
AcDbText
 10
616.244
 20
57.1114
 30
0.0
 40
1.8
  1
Speaker
100
AcDbText
  0
LWPOLYLINE
  5
2B5
330
17
100
AcDbEntity
  8
ETHERNET
370
25
100
AcDbPolyline
 90
4
 70
0
 10
251.096
 20
391.91800000000006
 10
255.596
 20
391.91800000000006
 10
255.596
 20
473.41480000000007
 10
251.096
 20
473.41480000000007
  0
LWPOLYLINE
  5
2B6
330
17
100
AcDbEntity
  8
ETHERNET
370
18
100
AcDbPolyline
 90
3
 70
0
 10
253.096
 20
474.41480000000007
 10
251.096
 20
473.41480000000007
 10
253.096
 20
472.41480000000007
  0
TEXT
  5
2B7
330
17
100
AcDbEntity
  8
ETHERNET
100
AcDbText
 10
253.346
 20
474.91480000000007
 30
0.0
 40
1.8
  1
Ethernet
100
AcDbText
  0
ENDSEC
  0
SECTION
  2
OBJECTS
  0
DICTIONARY
  5
A
330
0
100
AcDbDictionary
281
1
  3
ACAD_COLOR
350
B
  3
ACAD_GROUP
350
C
  3
ACAD_LAYOUT
350
D
  3
ACAD_MATERIAL
350
E
  3
ACAD_MLEADERSTYLE
350
F
  3
ACAD_MLINESTYLE
350
10
  3
ACAD_PLOTSETTINGS
350
11
  3
ACAD_PLOTSTYLENAME
350
12
  3
ACAD_SCALELIST
350
14
  3
ACAD_TABLESTYLE
350
15
  3
ACAD_VISUALSTYLE
350
16
  3
EZDXF_META
350
2D
  0
DICTIONARY
  5
B
330
A
100
AcDbDictionary
281
1
  0
DICTIONARY
  5
C
330
A
100
AcDbDictionary
281
1
  0
DICTIONARY
  5
D
330
A
100
AcDbDictionary
281
1
  3
Model
350
1A
  3
Layout1
350
1E
  0
DICTIONARY
  5
E
330
A
100
AcDbDictionary
281
1
  3
ByBlock
350
1F
  3
ByLayer
350
20
  3
Global
350
21
  0
DICTIONARY
  5
F
330
A
100
AcDbDictionary
281
1
  3
Standard
350
2C
  0
DICTIONARY
  5
10
330
A
100
AcDbDictionary
281
1
  3
Standard
350
22
  0
DICTIONARY
  5
11
330
A
100
AcDbDictionary
281
1
  0
ACDBDICTIONARYWDFLT
  5
12
330
A
100
AcDbDictionary
281
1
  3
Normal
350
13
100
AcDbDictionaryWithDefault
340
13
  0
ACDBPLACEHOLDER
  5
13
330
12
  0
DICTIONARY
  5
14
330
A
100
AcDbDictionary
281
1
  0
DICTIONARY
  5
15
330
A
100
AcDbDictionary
281
1
  0
DICTIONARY
  5
16
330
A
100
AcDbDictionary
281
1
  0
LAYOUT
  5
1A
330
D
100
AcDbPlotSettings
  1

  4
A3
  6

 40
7.5
 41
20.0
 42
7.5
 43
20.0
 44
420.0
 45
297.0
 46
0.0
 47
0.0
 48
0.0
 49
0.0
140
0.0
141
0.0
142
1.0
143
1.0
 70
1024
 72
1
 73
0
 74
5
  7

 75
16
 76
0
 77
2
 78
300
147
1.0
148
0.0
149
0.0
100
AcDbLayout
  1
Model
 70
1
 71
0
 10
0.0
 20
0.0
 11
420.0
 21
297.0
 12
0.0
 22
0.0
 32
0.0
 14
1e+20
 24
1e+20
 34
1e+20
 15
-1e+20
 25
-1e+20
 35
-1e+20
146
0.0
 13
0.0
 23
0.0
 33
0.0
 16
1.0
 26
0.0
 36
0.0
 17
0.0
 27
1.0
 37
0.0
 76
1
330
17
  0
LAYOUT
  5
1E
330
D
100
AcDbPlotSettings
  1

  4
A3
  6

 40
7.5
 41
20.0
 42
7.5
 43
20.0
 44
420.0
 45
297.0
 46
0.0
 47
0.0
 48
0.0
 49
0.0
140
0.0
141
0.0
142
1.0
143
1.0
 70
0
 72
1
 73
0
 74
5
  7

 75
16
 76
0
 77
2
 78
300
147
1.0
148
0.0
149
0.0
100
AcDbLayout
  1
Layout1
 70
1
 71
1
 10
0.0
 20
0.0
 11
420.0
 21
297.0
 12
0.0
 22
0.0
 32
0.0
 14
1e+20
 24
1e+20
 34
1e+20
 15
-1e+20
 25
-1e+20
 35
-1e+20
146
0.0
 13
0.0
 23
0.0
 33
0.0
 16
1.0
 26
0.0
 36
0.0
 17
0.0
 27
1.0
 37
0.0
 76
1
330
1B
  0
MATERIAL
  5
1F
102
{ACAD_REACTORS
330
E
102
}
330
E
100
AcDbMaterial
  1
ByBlock
  2

 70
0
 40
1.0
 71
1
 41
1.0
 91
-1023410177
 42
1.0
 72
1
  3

 73
1
 74
1
 75
1
 44
0.5
 73
0
 45
1.0
 46
1.0
 77
1
  4

 78
1
 79
1
170
1
 48
1.0
171
1
  6

172
1
173
1
174
1
140
1.0
141
1.0
175
1
  7

176
1
177
1
178
1
143
1.0
179
1
  8

270
1
271
1
272
1
145
1.0
146
1.0
273
1
  9

274
1
275
1
276
1
 42
1.0
 72
1
  3

 73
1
 74
1
 75
1
 94
63
  0
MATERIAL
  5
20
102
{ACAD_REACTORS
330
E
102
}
330
E
100
AcDbMaterial
  1
ByLayer
  2

 70
0
 40
1.0
 71
1
 41
1.0
 91
-1023410177
 42
1.0
 72
1
  3

 73
1
 74
1
 75
1
 44
0.5
 73
0
 45
1.0
 46
1.0
 77
1
  4

 78
1
 79
1
170
1
 48
1.0
171
1
  6

172
1
173
1
174
1
140
1.0
141
1.0
175
1
  7

176
1
177
1
178
1
143
1.0
179
1
  8

270
1
271
1
272
1
145
1.0
146
1.0
273
1
  9

274
1
275
1
276
1
 42
1.0
 72
1
  3

 73
1
 74
1
 75
1
 94
63
  0
MATERIAL
  5
21
102
{ACAD_REACTORS
330
E
102
}
330
E
100
AcDbMaterial
  1
Global
  2

 70
0
 40
1.0
 71
1
 41
1.0
 91
-1023410177
 42
1.0
 72
1
  3

 73
1
 74
1
 75
1
 44
0.5
 73
0
 45
1.0
 46
1.0
 77
1
  4

 78
1
 79
1
170
1
 48
1.0
171
1
  6

172
1
173
1
174
1
140
1.0
141
1.0
175
1
  7

176
1
177
1
178
1
143
1.0
179
1
  8

270
1
271
1
272
1
145
1.0
146
1.0
273
1
  9

274
1
275
1
276
1
 42
1.0
 72
1
  3

 73
1
 74
1
 75
1
 94
63
  0
MLINESTYLE
  5
22
102
{ACAD_REACTORS
330
10
102
}
330
10
100
AcDbMlineStyle
  2
Standard
 70
0
  3

 62
256
 51
90.0
 52
90.0
 71
2
 49
0.5
 62
256
  6
BYLAYER
 49
-0.5
 62
256
  6
BYLAYER
  0
MLEADERSTYLE
  5
2C
102
{ACAD_REACTORS
330
F
102
}
330
F
100
AcDbMLeaderStyle
179
2
170
2
171
1
172
0
 90
2
 40
0.0
 41
0.0
173
1
 91
-1056964608
 92
-2
290
1
 42
2.0
291
1
 43
8.0
  3
Standard
 44
4.0
300

342
29
174
1
175
1
176
0
178
1
 93
-1056964608
 45
4.0
292
0
297
0
 46
4.0
 94
-1056964608
 47
1.0
 49
1.0
140
1.0
294
1
141
0.0
177
0
142
1.0
295
0
296
0
143
3.75
271
0
272
9
273
9
  0
DICTIONARY
  5
2D
330
A
100
AcDbDictionary
280
1
281
1
  3
CREATED_BY_EZDXF
350
2E
  3
WRITTEN_BY_EZDXF
350
2BA
  0
DICTIONARYVAR
  5
2E
330
2D
100
DictionaryVariables
280
0
  1
1.4.4 @ 2026-06-16T18:15:42.119213+00:00
  0
DICTIONARYVAR
  5
2BA
330
2D
100
DictionaryVariables
280
0
  1
1.4.4 @ 2026-06-16T18:15:42.132741+00:00
  0
ENDSEC
  0
EOF
